<svg width="55" height="12" viewBox="0 0 55 12" fill="none" xmlns="http://www.w3.org/2000/svg">
<path d="M5.19412 11.084C6.63612 11.084 7.92412 10.594 8.79212 9.642L8.13412 8.984C7.33612 9.81 6.35612 10.16 5.23612 10.16C2.87012 10.16 1.09212 8.424 1.09212 6.1C1.09212 3.776 2.87012 2.04 5.23612 2.04C6.35612 2.04 7.33612 2.39 8.13412 3.202L8.79212 2.544C7.92412 1.592 6.63612 1.116 5.20812 1.116C2.25412 1.116 0.070123 3.23 0.070123 6.1C0.070123 8.97 2.25412 11.084 5.19412 11.084ZM13.1392 11.07C15.2952 11.07 16.8772 9.502 16.8772 7.318C16.8772 5.134 15.2952 3.58 13.1392 3.58C10.9832 3.58 9.38717 5.134 9.38717 7.318C9.38717 9.502 10.9832 11.07 13.1392 11.07ZM13.1392 10.188C11.5712 10.188 10.3952 9.04 10.3952 7.318C10.3952 5.596 11.5712 4.448 13.1392 4.448C14.7072 4.448 15.8692 5.596 15.8692 7.318C15.8692 9.04 14.7072 10.188 13.1392 10.188ZM22.3252 3.58C21.0512 3.58 20.0572 4.098 19.5252 4.994V3.636H18.5732V11H19.5672V7.136C19.5672 5.456 20.5612 4.476 22.1432 4.476C23.5432 4.476 24.3552 5.274 24.3552 6.828V11H25.3492V6.73C25.3492 4.616 24.1172 3.58 22.3252 3.58ZM27.8825 2.726V3.636H26.5665V4.476H27.8825V11H28.8765V4.476H31.1165V3.636H28.8485V2.768C28.8485 1.858 29.2965 1.382 30.1505 1.382C30.5705 1.382 30.9625 1.508 31.2425 1.746L31.5785 1.004C31.2145 0.695999 30.6545 0.541999 30.1085 0.541999C28.6665 0.541999 27.8825 1.41 27.8825 2.726ZM34.0845 0.611999C33.6785 0.611999 33.3565 0.933999 33.3565 1.312C33.3565 1.704 33.6785 2.026 34.0845 2.026C34.5045 2.026 34.8125 1.704 34.8125 1.298C34.8125 0.92 34.4905 0.611999 34.0845 0.611999ZM33.5805 11H34.5745V3.636H33.5805V11ZM37.9718 5.078V3.636H37.0198V11H38.0138V7.248C38.0138 5.512 38.9518 4.532 40.4918 4.532C40.5618 4.532 40.6458 4.546 40.7298 4.546V3.58C39.3718 3.58 38.4338 4.098 37.9718 5.078ZM51.3802 3.58C50.0502 3.58 49.0002 4.182 48.4682 5.134C48.0202 4.098 47.0682 3.58 45.8502 3.58C44.6182 3.58 43.6662 4.098 43.1482 4.98V3.636H42.1962V11H43.1902V7.136C43.1902 5.456 44.1562 4.476 45.6542 4.476C46.9982 4.476 47.7822 5.274 47.7822 6.828V11H48.7762V7.136C48.7762 5.456 49.7282 4.476 51.2402 4.476C52.5702 4.476 53.3542 5.274 53.3542 6.828V11H54.3482V6.73C54.3482 4.616 53.1722 3.58 51.3802 3.58Z" fill="#570FEF"/>
</svg>
