<svg width="71" height="18" viewBox="0 0 71 18" fill="none" xmlns="http://www.w3.org/2000/svg">
<path d="M0.896516 14H6.30252C10.1955 14 12.8645 11.654 12.8645 8.05C12.8645 4.446 10.1955 2.1 6.30252 2.1H0.896516V14ZM3.65052 11.739V4.361H6.16652C8.52952 4.361 10.0765 5.772 10.0765 8.05C10.0765 10.328 8.52952 11.739 6.16652 11.739H3.65052ZM23.3801 9.461C23.3801 6.52 21.3061 4.718 18.6201 4.718C15.8321 4.718 13.7411 6.69 13.7411 9.427C13.7411 12.147 15.7981 14.136 18.9601 14.136C20.6091 14.136 21.8841 13.626 22.7341 12.657L21.3231 11.127C20.6941 11.722 19.9971 12.011 19.0281 12.011C17.6341 12.011 16.6651 11.314 16.4101 10.175H23.3291C23.3461 9.954 23.3801 9.665 23.3801 9.461ZM18.6371 6.724C19.8271 6.724 20.6941 7.472 20.8811 8.628H16.3761C16.5631 7.455 17.4301 6.724 18.6371 6.724ZM24.8124 14H27.4644V1.386H24.8124V14ZM30.9183 3.579C31.9043 3.579 32.5673 2.933 32.5673 2.049C32.5673 1.233 31.9043 0.620999 30.9183 0.620999C29.9323 0.620999 29.2693 1.267 29.2693 2.1C29.2693 2.933 29.9323 3.579 30.9183 3.579ZM29.5923 14H32.2443V4.854H29.5923V14ZM40.9003 4.854L38.2823 11.076L35.7493 4.854H33.0123L36.8543 14H39.5913L43.4503 4.854H40.9003ZM52.9091 9.461C52.9091 6.52 50.8351 4.718 48.1491 4.718C45.3611 4.718 43.2701 6.69 43.2701 9.427C43.2701 12.147 45.3271 14.136 48.4891 14.136C50.1381 14.136 51.4131 13.626 52.2631 12.657L50.8521 11.127C50.2231 11.722 49.5261 12.011 48.5571 12.011C47.1631 12.011 46.1941 11.314 45.9391 10.175H52.8581C52.8751 9.954 52.9091 9.665 52.9091 9.461ZM48.1661 6.724C49.3561 6.724 50.2231 7.472 50.4101 8.628H45.9051C46.0921 7.455 46.9591 6.724 48.1661 6.724ZM56.8744 6.061V4.854H54.3414V14H56.9934V9.682C56.9934 7.931 57.9624 7.132 59.4244 7.132C59.6284 7.132 59.7984 7.149 60.0194 7.166V4.718C58.6084 4.718 57.5204 5.177 56.8744 6.061ZM68.1063 4.854L65.5223 11.059L62.9553 4.854H60.2183L64.1793 14.068L64.1453 14.153C63.7883 14.969 63.3803 15.292 62.6493 15.292C62.1223 15.292 61.5613 15.071 61.1533 14.714L60.1843 16.601C60.7793 17.128 61.7993 17.434 62.7343 17.434C64.3833 17.434 65.6413 16.771 66.5253 14.561L70.6563 4.854H68.1063Z" fill="#570FEF"/>
</svg>
