<svg width="86" height="18" viewBox="0 0 86 18" fill="none" xmlns="http://www.w3.org/2000/svg">
<path d="M5.93635 2.1C6.99035 2.1 7.90268 2.27567 8.67335 2.627C9.45535 2.97833 10.056 3.477 10.4753 4.123C10.8947 4.769 11.1043 5.534 11.1043 6.418C11.1043 7.29067 10.8947 8.05567 10.4753 8.713C10.056 9.359 9.45535 9.85767 8.67335 10.209C7.90268 10.549 6.99035 10.719 5.93635 10.719H3.53935V14H0.785348V2.1H5.93635ZM5.78335 8.475C6.61068 8.475 7.23968 8.29933 7.67035 7.948C8.10101 7.58533 8.31635 7.07533 8.31635 6.418C8.31635 5.74933 8.10101 5.23933 7.67035 4.888C7.23968 4.52533 6.61068 4.344 5.78335 4.344H3.53935V8.475H5.78335ZM12.5502 4.854H15.2022V14H12.5502V4.854ZM13.8762 3.579C13.3888 3.579 12.9922 3.43733 12.6862 3.154C12.3802 2.87067 12.2272 2.51933 12.2272 2.1C12.2272 1.68067 12.3802 1.32933 12.6862 1.046C12.9922 0.762666 13.3888 0.620999 13.8762 0.620999C14.3635 0.620999 14.7602 0.756999 15.0662 1.029C15.3722 1.301 15.5252 1.641 15.5252 2.049C15.5252 2.491 15.3722 2.85933 15.0662 3.154C14.7602 3.43733 14.3635 3.579 13.8762 3.579ZM21.7501 14.136C20.7755 14.136 19.8971 13.9377 19.1151 13.541C18.3445 13.133 17.7381 12.572 17.2961 11.858C16.8655 11.144 16.6501 10.3337 16.6501 9.427C16.6501 8.52033 16.8655 7.71 17.2961 6.996C17.7381 6.282 18.3445 5.72667 19.1151 5.33C19.8971 4.922 20.7755 4.718 21.7501 4.718C22.7135 4.718 23.5521 4.922 24.2661 5.33C24.9915 5.72667 25.5185 6.299 25.8471 7.047L23.7901 8.152C23.3141 7.31333 22.6285 6.894 21.7331 6.894C21.0418 6.894 20.4695 7.12067 20.0161 7.574C19.5628 8.02733 19.3361 8.645 19.3361 9.427C19.3361 10.209 19.5628 10.8267 20.0161 11.28C20.4695 11.7333 21.0418 11.96 21.7331 11.96C22.6398 11.96 23.3255 11.5407 23.7901 10.702L25.8471 11.824C25.5185 12.5493 24.9915 13.116 24.2661 13.524C23.5521 13.932 22.7135 14.136 21.7501 14.136ZM30.9013 10.413L29.6263 11.671V14H26.9743V1.386H29.6263V8.526L33.5023 4.854H36.6643L32.8563 8.73L37.0043 14H33.7913L30.9013 10.413ZM46.4242 9.461C46.4242 9.495 46.4072 9.733 46.3732 10.175H39.4542C39.5789 10.7417 39.8735 11.1893 40.3382 11.518C40.8029 11.8467 41.3809 12.011 42.0722 12.011C42.5482 12.011 42.9675 11.943 43.3302 11.807C43.7042 11.6597 44.0499 11.433 44.3672 11.127L45.7782 12.657C44.9169 13.643 43.6589 14.136 42.0042 14.136C40.9729 14.136 40.0605 13.9377 39.2672 13.541C38.4739 13.133 37.8619 12.572 37.4312 11.858C37.0005 11.144 36.7852 10.3337 36.7852 9.427C36.7852 8.53167 36.9949 7.727 37.4142 7.013C37.8449 6.28767 38.4285 5.72667 39.1652 5.33C39.9132 4.922 40.7462 4.718 41.6642 4.718C42.5595 4.718 43.3699 4.91067 44.0952 5.296C44.8205 5.68133 45.3872 6.23667 45.7952 6.962C46.2145 7.676 46.4242 8.509 46.4242 9.461ZM41.6812 6.724C41.0805 6.724 40.5762 6.894 40.1682 7.234C39.7602 7.574 39.5109 8.03867 39.4202 8.628H43.9252C43.8345 8.05 43.5852 7.591 43.1772 7.251C42.7692 6.89967 42.2705 6.724 41.6812 6.724ZM57.1725 1.386V14H54.6395V12.946C53.9822 13.7393 53.0302 14.136 51.7835 14.136C50.9222 14.136 50.1402 13.9433 49.4375 13.558C48.7462 13.1727 48.2022 12.623 47.8055 11.909C47.4088 11.195 47.2105 10.3677 47.2105 9.427C47.2105 8.48633 47.4088 7.659 47.8055 6.945C48.2022 6.231 48.7462 5.68133 49.4375 5.296C50.1402 4.91067 50.9222 4.718 51.7835 4.718C52.9508 4.718 53.8632 5.08633 54.5205 5.823V1.386H57.1725ZM52.2425 11.96C52.9112 11.96 53.4665 11.7333 53.9085 11.28C54.3505 10.8153 54.5715 10.1977 54.5715 9.427C54.5715 8.65633 54.3505 8.04433 53.9085 7.591C53.4665 7.12633 52.9112 6.894 52.2425 6.894C51.5625 6.894 51.0015 7.12633 50.5595 7.591C50.1175 8.04433 49.8965 8.65633 49.8965 9.427C49.8965 10.1977 50.1175 10.8153 50.5595 11.28C51.0015 11.7333 51.5625 11.96 52.2425 11.96ZM72.9888 4.854V14H70.4728V12.912C70.1214 13.3087 69.7021 13.6147 69.2148 13.83C68.7274 14.034 68.2004 14.136 67.6338 14.136C66.4324 14.136 65.4804 13.7903 64.7778 13.099C64.0751 12.4077 63.7238 11.382 63.7238 10.022V4.854H66.3758V9.631C66.3758 11.1043 66.9934 11.841 68.2288 11.841C68.8634 11.841 69.3734 11.637 69.7588 11.229C70.1441 10.8097 70.3368 10.192 70.3368 9.376V4.854H72.9888ZM80.5184 4.718C81.3684 4.718 82.139 4.91633 82.8304 5.313C83.533 5.69833 84.0827 6.248 84.4794 6.962C84.876 7.66467 85.0744 8.48633 85.0744 9.427C85.0744 10.3677 84.876 11.195 84.4794 11.909C84.0827 12.6117 83.533 13.1613 82.8304 13.558C82.139 13.9433 81.3684 14.136 80.5184 14.136C79.351 14.136 78.433 13.7677 77.7644 13.031V17.298H75.1124V4.854H77.6454V5.908C78.3027 5.11467 79.2604 4.718 80.5184 4.718ZM80.0594 11.96C80.7394 11.96 81.2947 11.7333 81.7254 11.28C82.1674 10.8153 82.3884 10.1977 82.3884 9.427C82.3884 8.65633 82.1674 8.04433 81.7254 7.591C81.2947 7.12633 80.7394 6.894 80.0594 6.894C79.3794 6.894 78.8184 7.12633 78.3764 7.591C77.9457 8.04433 77.7304 8.65633 77.7304 9.427C77.7304 10.1977 77.9457 10.8153 78.3764 11.28C78.8184 11.7333 79.3794 11.96 80.0594 11.96Z" fill="#570FEF"/>
</svg>
