<svg width="38" height="38" viewBox="0 0 38 38" fill="none" xmlns="http://www.w3.org/2000/svg">
<rect width="38" height="38" rx="19" fill="#570FEF" fill-opacity="0.2"/>
<rect x="4" y="4" width="30" height="30" rx="15" fill="#570FEF"/>
<path d="M24.4286 23.8636H24V18.0682C24 15.6631 22.1375 13.6739 19.7143 13.3432V12.6818C19.7143 12.3051 19.3946 12 19 12C18.6054 12 18.2857 12.3051 18.2857 12.6818V13.3432C15.8625 13.6739 14 15.6631 14 18.0682V23.8636H13.5714C13.2554 23.8636 13 24.1074 13 24.4091V24.9545C13 25.0295 13.0643 25.0909 13.1429 25.0909H17C17 26.1443 17.8964 27 19 27C20.1036 27 21 26.1443 21 25.0909H24.8571C24.9357 25.0909 25 25.0295 25 24.9545V24.4091C25 24.1074 24.7446 23.8636 24.4286 23.8636ZM19 25.9091C18.5268 25.9091 18.1429 25.5426 18.1429 25.0909H19.8571C19.8571 25.5426 19.4732 25.9091 19 25.9091Z" fill="white"/>
</svg>
