<svg width="42" height="40" viewBox="0 0 42 40" fill="none" xmlns="http://www.w3.org/2000/svg">
<g filter="url(#filter0_d_29_121)">
<rect x="10" y="10" width="22" height="20" rx="4" fill="#39A2FF"/>
<rect x="10.5" y="10.5" width="21" height="19" rx="3.5" stroke="white"/>
</g>
<path d="M25.8889 16.5385H24L23.55 15.2912C23.5189 15.2059 23.4619 15.1321 23.3869 15.08C23.3118 15.0278 23.2223 14.9999 23.1306 15H18.8694C18.6819 15 18.5139 15.1168 18.4514 15.2912L18 16.5385H16.1111C15.4972 16.5385 15 17.0302 15 17.6374V23.9011C15 24.5082 15.4972 25 16.1111 25H25.8889C26.5028 25 27 24.5082 27 23.9011V17.6374C27 17.0302 26.5028 16.5385 25.8889 16.5385ZM21 22.8022C19.7722 22.8022 18.7778 21.8187 18.7778 20.6044C18.7778 19.3901 19.7722 18.4066 21 18.4066C22.2278 18.4066 23.2222 19.3901 23.2222 20.6044C23.2222 21.8187 22.2278 22.8022 21 22.8022ZM19.6667 20.6044C19.6667 20.9541 19.8071 21.2895 20.0572 21.5368C20.3072 21.7841 20.6464 21.9231 21 21.9231C21.3536 21.9231 21.6928 21.7841 21.9428 21.5368C22.1929 21.2895 22.3333 20.9541 22.3333 20.6044C22.3333 20.2547 22.1929 19.9192 21.9428 19.6719C21.6928 19.4246 21.3536 19.2857 21 19.2857C20.6464 19.2857 20.3072 19.4246 20.0572 19.6719C19.8071 19.9192 19.6667 20.2547 19.6667 20.6044Z" fill="white"/>
<defs>
<filter id="filter0_d_29_121" x="0" y="0" width="42" height="40" filterUnits="userSpaceOnUse" color-interpolation-filters="sRGB">
<feFlood flood-opacity="0" result="BackgroundImageFix"/>
<feColorMatrix in="SourceAlpha" type="matrix" values="0 0 0 0 0 0 0 0 0 0 0 0 0 0 0 0 0 0 127 0" result="hardAlpha"/>
<feOffset/>
<feGaussianBlur stdDeviation="5"/>
<feComposite in2="hardAlpha" operator="out"/>
<feColorMatrix type="matrix" values="0 0 0 0 0 0 0 0 0 0 0 0 0 0 0 0 0 0 0.1 0"/>
<feBlend mode="normal" in2="BackgroundImageFix" result="effect1_dropShadow_29_121"/>
<feBlend mode="normal" in="SourceGraphic" in2="effect1_dropShadow_29_121" result="shape"/>
</filter>
</defs>
</svg>
