<svg width="12" height="14" viewBox="0 0 12 14" fill="none" xmlns="http://www.w3.org/2000/svg">
<g clip-path="url(#clip0_236_147)">
<path d="M1.86957 13.9994C1.81095 13.9857 1.75233 13.9706 1.69338 13.9579C0.693903 13.7442 0.00782383 12.8775 0.00553144 11.7793C-0.00167321 8.59449 -0.00101824 5.40972 0.00520395 2.22494C0.00716886 1.12671 0.689646 0.2562 1.68945 0.044909C1.83355 0.0144311 1.98321 0.0021029 2.13058 0.00176046C4.24809 -0.000979137 6.3656 -0.00166404 8.48311 0.000733108C9.50519 0.00176046 10.32 0.670564 10.5587 1.7075C10.599 1.88249 10.6114 2.0681 10.6121 2.24891C10.617 3.3242 10.615 4.39949 10.6141 5.47478C10.6137 5.80114 10.4798 6.00421 10.2237 6.07647C9.92404 6.16105 9.62079 5.95216 9.58018 5.63094C9.57101 5.55902 9.56905 5.48574 9.56905 5.4128C9.56839 4.3649 9.56741 3.31701 9.56905 2.26912C9.57003 1.79482 9.39385 1.42395 8.97925 1.21506C8.83156 1.14075 8.65373 1.09965 8.48933 1.09897C6.36724 1.09109 4.24547 1.09178 2.1237 1.0952C1.52375 1.09623 1.09638 1.52566 1.05381 2.15029C1.05053 2.20028 1.04922 2.25028 1.04922 2.30062C1.0489 5.43506 1.05053 8.56984 1.04759 11.7043C1.04726 12.1888 1.21329 12.5717 1.63902 12.7847C1.79392 12.8621 1.98124 12.896 2.15514 12.9005C2.71251 12.9145 3.27055 12.9042 3.82825 12.9066C4.04767 12.9076 4.21599 13.009 4.31097 13.2182C4.40037 13.4155 4.38792 13.6165 4.25136 13.7816C4.17571 13.873 4.05946 13.9278 3.96187 13.9994C3.264 13.9994 2.56678 13.9994 1.86957 13.9994Z" fill="#570FEF"/>
<path d="M6.07909 14C6.06534 13.9908 6.05256 13.9785 6.0375 13.9723C5.7503 13.8521 5.61406 13.5901 5.70085 13.2819C5.90094 12.571 6.10725 11.8618 6.32045 11.155C6.35156 11.0515 6.42098 10.9512 6.49532 10.8731C7.42963 9.89167 8.36493 8.91123 9.30677 7.93731C9.75641 7.47261 10.2984 7.32022 10.9039 7.52089C11.4986 7.7178 11.8595 8.15785 11.9722 8.79788C12.0596 9.29443 11.9384 9.74681 11.6267 10.1369C11.5599 10.2204 11.4845 10.2971 11.4105 10.3745C10.526 11.2984 9.63982 12.221 8.7566 13.1466C8.63608 13.273 8.49952 13.3552 8.3348 13.4025C7.65167 13.598 6.97017 13.8004 6.28802 14.0004C6.2186 14 6.14884 14 6.07909 14ZM6.97181 12.6607C7.30945 12.5631 7.6163 12.4782 7.92053 12.3833C7.9916 12.3611 8.0643 12.3176 8.11702 12.2635C8.70256 11.658 9.2845 11.0481 9.8671 10.4396C9.89657 10.4088 9.92342 10.3752 9.94504 10.3502C9.69844 10.0913 9.45905 9.84064 9.21508 9.58483C9.20067 9.5975 9.17971 9.61291 9.1617 9.63175C8.55356 10.2656 7.94575 10.8995 7.33827 11.5337C7.31698 11.556 7.29111 11.5796 7.28259 11.6077C7.17976 11.9491 7.08021 12.2915 6.97181 12.6607ZM10.7055 9.55607C10.9016 9.39477 10.9969 9.19067 10.9317 8.93315C10.8754 8.71056 10.7248 8.57632 10.5083 8.54002C10.2791 8.50167 10.1091 8.61433 9.97582 8.79069C10.2214 9.04821 10.4605 9.29889 10.7055 9.55607Z" fill="#570FEF"/>
<path d="M5.30786 3.28168C6.19665 3.28168 7.08544 3.27962 7.9739 3.2827C8.3659 3.28407 8.62069 3.65426 8.48576 4.01965C8.40618 4.2354 8.24932 4.35149 8.03023 4.37238C7.96539 4.37854 7.89957 4.37512 7.8344 4.37512C6.11347 4.37512 4.39287 4.37546 2.67194 4.37477C2.31858 4.37477 2.07887 4.13574 2.09491 3.80323C2.10932 3.49879 2.33136 3.28339 2.64181 3.28236C3.3387 3.27996 4.03591 3.28168 4.7328 3.28168C4.92437 3.28168 5.11595 3.28168 5.30786 3.28168Z" fill="#570FEF"/>
<path d="M5.30393 6.56269C4.41972 6.56269 3.53519 6.56406 2.65098 6.562C2.29468 6.56132 2.05921 6.2925 2.10015 5.94149C2.12897 5.69458 2.31694 5.50213 2.55863 5.47336C2.5976 5.46891 2.6369 5.46925 2.67619 5.46925C4.43184 5.46891 6.18748 5.46891 7.94312 5.46925C8.29124 5.46925 8.5267 5.70006 8.5195 6.02881C8.51262 6.33188 8.28895 6.55824 7.9834 6.56166C7.6045 6.56543 7.22528 6.56269 6.84638 6.56269C6.3319 6.56303 5.81808 6.56269 5.30393 6.56269Z" fill="#570FEF"/>
<path d="M4.24714 8.75022C3.7117 8.75022 3.17627 8.75193 2.64116 8.74953C2.35723 8.74816 2.14043 8.56221 2.10212 8.29647C2.05169 7.9458 2.2842 7.6602 2.63232 7.6578C3.27648 7.65369 3.92064 7.65643 4.5648 7.65643C5.00428 7.65643 5.44409 7.65335 5.88358 7.65814C6.13771 7.66088 6.34599 7.84101 6.39314 8.08347C6.44423 8.34544 6.32503 8.60228 6.0935 8.69885C6.0113 8.73309 5.91633 8.74714 5.82725 8.74816C5.30033 8.75227 4.77373 8.75022 4.24714 8.75022Z" fill="#570FEF"/>
</g>
<defs>
<clipPath id="clip0_236_147">
<rect width="12" height="14" fill="white"/>
</clipPath>
</defs>
</svg>
