<svg width="20" height="14" viewBox="0 0 20 14" fill="none" xmlns="http://www.w3.org/2000/svg">
<path d="M0.00540136 10.5988C0.0594149 10.2208 0.102626 9.84806 0.162041 9.47537C0.226857 9.06486 0.226857 9.06486 0.631959 9.16749C0.729183 9.19449 0.831809 9.2269 0.929033 9.24311C1.09648 9.27552 1.12348 9.35654 1.08027 9.51858C0.95604 9.9993 0.810203 10.4746 0.745387 10.9661C0.669768 11.5765 0.669768 12.1976 0.63736 12.8188C0.631959 12.916 0.67517 13.0403 0.513129 13.0511C0.210653 13.0673 0.167442 13.0565 0.145837 12.8728C0.11883 12.5973 0.075619 12.3219 0.0378095 12.0464C0.0270068 11.9762 0.0108027 11.9114 0 11.8412C0.00540136 11.4253 0.00540136 11.0094 0.00540136 10.5988Z" fill="#FF8E00"/>
<path d="M8.79883 12.9428C7.59973 12.9374 6.86515 11.7005 7.39988 10.5771C7.89141 9.5454 8.39913 8.52454 8.90146 7.49828C10.0736 5.10548 11.2456 2.70728 12.4177 0.314477C12.4393 0.271266 12.4556 0.233457 12.4772 0.190246C12.5474 0.0390078 12.6608 -0.036611 12.8174 0.0174025C12.9903 0.0768175 13.0227 0.211851 12.9795 0.379293C12.6176 1.94569 12.2557 3.51208 11.8938 5.07847C11.3969 7.24442 10.8946 9.40496 10.3976 11.5709C10.2086 12.4189 9.60364 12.9428 8.79883 12.9428ZM8.87985 10.5176C8.44234 10.5122 8.08585 10.8687 8.08585 11.3008C8.08585 11.7275 8.43154 12.0786 8.86365 12.0786C9.30116 12.084 9.65765 11.7329 9.65765 11.2954C9.65225 10.8741 9.30116 10.523 8.87985 10.5176Z" fill="#FF8E00"/>
<path d="M18.8723 7.69289C18.8291 7.7253 18.7913 7.77932 18.7373 7.80092C17.7381 8.20602 16.7388 8.60572 15.7396 9.01082C15.5721 9.08104 15.5343 8.97302 15.4965 8.85959C15.2534 8.1142 14.9077 7.42823 14.4378 6.80167C14.2164 6.51 13.9733 6.23453 13.7248 5.95906C13.6222 5.84563 13.6006 5.77541 13.7032 5.65118C14.265 4.98141 14.8159 4.31164 15.3723 3.63648C15.4749 3.51224 15.5559 3.51765 15.6801 3.60947C17.0413 4.67894 18.0837 5.99687 18.8183 7.56326C18.8345 7.59567 18.8507 7.63348 18.8723 7.69289Z" fill="#FF8E00"/>
<path d="M15.6585 13.0347C15.8205 12.3487 15.9069 11.6681 15.8745 10.9714C15.8583 10.6149 15.8151 10.2638 15.7665 9.91269C15.7449 9.74525 15.7827 9.66963 15.9502 9.62102C16.9818 9.33475 18.0135 9.03767 19.0397 8.7406C19.2126 8.69198 19.2882 8.72439 19.3476 8.90264C19.7419 10.172 19.9093 11.4737 19.8715 12.8024C19.8661 12.9429 19.8553 13.0509 19.6609 13.0509C18.37 13.0455 17.0736 13.0455 15.7827 13.0455C15.7449 13.0509 15.7071 13.0401 15.6585 13.0347Z" fill="#FF8E00"/>
<path d="M8.72871 3.27989C8.76112 3.84703 8.76112 3.79842 8.39383 3.80922C7.18392 3.84163 6.04964 4.15491 4.99097 4.73826C4.82893 4.83008 4.74791 4.80847 4.64529 4.65724C4.42383 4.31155 4.19157 3.96586 3.94851 3.63098C3.85129 3.49594 3.85669 3.41492 3.99712 3.3123C5.32586 2.35626 6.79503 1.77831 8.41543 1.56766C8.56127 1.55146 8.61528 1.60547 8.62068 1.74591C8.65849 2.31845 8.7017 2.88559 8.72871 3.27989Z" fill="#FF8E00"/>
<path d="M4.13741 5.23506C4.0942 5.28367 4.06179 5.33228 4.01858 5.36469C2.93831 6.1857 2.1119 7.21196 1.52316 8.42726C1.46914 8.54609 1.39352 8.5731 1.27469 8.52989C1.07484 8.44887 0.880394 8.36785 0.680543 8.30303C0.523904 8.24902 0.491496 8.1734 0.54551 8.01136C0.837183 7.16334 1.22068 6.35854 1.75541 5.64016C2.12811 5.13243 2.56562 4.67332 2.97612 4.1872C3.08415 4.05756 3.17597 4.05756 3.2894 4.1926C3.53246 4.49507 3.79172 4.78135 4.04019 5.07842C4.06179 5.12703 4.0942 5.17565 4.13741 5.23506Z" fill="#FF8E00"/>
<path d="M13.1307 2.1239C13.6222 2.37236 14.0975 2.61002 14.5675 2.85849C14.6917 2.9233 14.6269 3.02053 14.5729 3.10695C14.238 3.62008 13.8977 4.13321 13.5628 4.64093C13.4386 4.82998 13.3143 5.01903 13.1955 5.20808C13.1199 5.32691 13.0443 5.33771 12.9254 5.25129C12.4663 4.92721 12.4663 4.92721 12.5906 4.38707C12.7526 3.68489 12.9146 2.98272 13.0821 2.28054C13.0875 2.24813 13.1037 2.21032 13.1307 2.1239Z" fill="#FF8E00"/>
<path d="M11.2078 1.60006C10.8081 2.41567 10.4354 3.17726 10.0681 3.93345C10.0411 3.94425 10.0303 3.94965 10.0195 3.94965C9.46315 3.85783 9.45775 3.85783 9.47936 3.28529C9.50096 2.75595 9.52257 2.22662 9.56038 1.70269C9.56578 1.63787 9.6468 1.51904 9.69001 1.51904C10.1815 1.52985 10.6785 1.56766 11.2078 1.60006Z" fill="#FF8E00"/>
</svg>
