<svg width="19" height="18" viewBox="0 0 19 18" fill="none" xmlns="http://www.w3.org/2000/svg">
<path d="M9.5769 18C9.5 18 9.4231 18 9.3462 18C9.25391 17.9627 9.1565 17.9301 9.06422 17.8882C6.19833 16.5884 3.33243 15.284 0.461414 13.9889C0.138424 13.8445 0 13.6348 0 13.3087C0.00512682 10.4203 0.00512682 7.53661 0 4.64823C0 4.31746 0.143551 4.11248 0.466541 3.97272C1.57906 3.4789 2.68645 2.97576 3.79385 2.47263C3.90664 2.42138 3.99379 2.41672 4.11171 2.47263C7.02375 3.84228 9.94091 5.20727 12.8581 6.57226C13.0016 6.63748 13.0478 6.71202 13.0478 6.85644C13.0426 8.19814 13.0426 9.5445 13.0426 10.8862C13.0426 11.175 13.1759 11.2496 13.4528 11.1145C13.9757 10.8676 14.4884 10.616 15.0165 10.3784C15.2062 10.2945 15.2728 10.1827 15.2728 9.99173C15.2677 8.6314 15.2625 7.27106 15.2779 5.91073C15.2779 5.68246 15.1959 5.57065 14.9754 5.46816C12.1198 4.14509 9.26929 2.81737 6.41878 1.48964C6.36238 1.46169 6.30086 1.43374 6.22396 1.39181C6.30086 1.35454 6.347 1.33125 6.39315 1.31261C7.29547 0.90731 8.19779 0.502005 9.09498 0.0920412C9.37183 -0.0337431 9.62817 -0.0290844 9.90502 0.0966999C12.7658 1.38715 15.6368 2.68227 18.5078 3.96806C18.8564 4.1218 19 4.33144 19 4.68084C18.9897 7.53661 18.9897 10.3924 19 13.2528C19 13.6208 18.8411 13.8351 18.4873 13.9935C15.5138 15.3259 12.5453 16.663 9.5769 18Z" fill="#FF8E00"/>
</svg>
