<svg width="13" height="63" viewBox="0 0 13 63" fill="none" xmlns="http://www.w3.org/2000/svg">
<path d="M12.1084 6.5C12.1084 9.82823 9.49549 12.5 6.30422 12.5C3.11294 12.5 0.5 9.82823 0.5 6.5C0.5 3.17177 3.11294 0.5 6.30422 0.5C9.49549 0.5 12.1084 3.17177 12.1084 6.5Z" fill="#570FEF" stroke="#DADADA"/>
<path d="M12.1084 56.5C12.1084 59.8282 9.49549 62.5 6.30422 62.5C3.11294 62.5 0.5 59.8282 0.5 56.5C0.5 53.1718 3.11294 50.5 6.30422 50.5C9.49549 50.5 12.1084 53.1718 12.1084 56.5Z" fill="#570FEF" stroke="#DADADA"/>
<mask id="path-3-inside-1_28_1798" fill="white">
<path d="M6.78912 51L5.81924 51L5.81924 13L6.78913 13L6.78912 51Z"/>
</mask>
<path d="M6.78912 51L6.78912 52L7.78912 52L7.78912 51L6.78912 51ZM5.81924 51L4.81924 51L4.81924 52L5.81924 52L5.81924 51ZM5.81924 13L5.81924 12L4.81924 12L4.81924 13L5.81924 13ZM6.78913 13L7.78913 13L7.78913 12L6.78913 12L6.78913 13ZM6.78912 50L5.81924 50L5.81924 52L6.78912 52L6.78912 50ZM6.81924 51L6.81924 13L4.81924 13L4.81924 51L6.81924 51ZM5.81924 14L6.78913 14L6.78913 12L5.81924 12L5.81924 14ZM5.78913 13L5.78912 51L7.78912 51L7.78913 13L5.78913 13Z" fill="#DADADA" mask="url(#path-3-inside-1_28_1798)"/>
</svg>
