<svg width="16" height="16" viewBox="0 0 16 16" fill="none" xmlns="http://www.w3.org/2000/svg">
<path d="M11.3958 7.50003C12.4291 7.50003 13.42 7.91048 14.1506 8.64109C14.8812 9.3717 15.2917 10.3626 15.2917 11.3959C15.2917 12.4291 14.8812 13.42 14.1506 14.1506C13.42 14.8812 12.4291 15.2917 11.3958 15.2917C10.3626 15.2917 9.37167 14.8812 8.64106 14.1506C7.91045 13.42 7.5 12.4291 7.5 11.3959C7.5 10.3626 7.91045 9.3717 8.64106 8.64109C9.37167 7.91048 10.3626 7.50003 11.3958 7.50003ZM11.3958 8.9167L11.3321 8.92165C11.2613 8.93458 11.1962 8.96875 11.1453 9.01962C11.0944 9.07049 11.0603 9.13564 11.0473 9.2064L11.0417 9.27086V11.0417H9.26942L9.20567 11.0481C9.1349 11.061 9.06975 11.0952 9.01888 11.146C8.96802 11.1969 8.93384 11.2621 8.92092 11.3328L8.91525 11.3966L8.92092 11.4603C8.93384 11.5311 8.96802 11.5962 9.01888 11.6471C9.06975 11.698 9.1349 11.7321 9.20567 11.7451L9.26942 11.7507H11.0417V13.5237L11.0473 13.5874C11.0603 13.6582 11.0944 13.7234 11.1453 13.7742C11.1962 13.8251 11.2613 13.8593 11.3321 13.8722L11.3958 13.8779L11.4596 13.8722C11.5303 13.8593 11.5955 13.8251 11.6464 13.7742C11.6972 13.7234 11.7314 13.6582 11.7443 13.5874L11.75 13.5237V11.75H13.5237L13.5874 11.7451C13.6582 11.7321 13.7233 11.698 13.7742 11.6471C13.8251 11.5962 13.8592 11.5311 13.8722 11.4603L13.8778 11.3966L13.8722 11.3328C13.8592 11.262 13.8249 11.1967 13.7739 11.1459C13.7229 11.095 13.6576 11.0609 13.5867 11.0481L13.523 11.0424H11.75V9.27157L11.7443 9.20782C11.7315 9.13693 11.6974 9.07162 11.6465 9.02062C11.5957 8.96961 11.5304 8.93534 11.4596 8.92236L11.3958 8.9167ZM8.86354 0.772278C9.14124 0.772256 9.41413 0.844793 9.65516 0.982704C9.89619 1.12062 10.097 1.31911 10.2377 1.55853L10.8143 2.54169H12.2812C12.5836 2.54169 12.8829 2.60124 13.1622 2.71693C13.4415 2.83262 13.6953 3.00219 13.9091 3.21596C14.1228 3.42973 14.2924 3.68351 14.4081 3.96281C14.5238 4.24211 14.5833 4.54146 14.5833 4.84378V8.07378C13.727 7.24976 12.5843 6.79015 11.3958 6.7917C11.1012 6.7917 10.8129 6.81932 10.5331 6.87245C10.3611 6.34082 10.0525 5.86372 9.63812 5.48894C9.22372 5.11416 8.7181 4.85486 8.17193 4.73703C7.62576 4.6192 7.05821 4.64698 6.52615 4.81757C5.9941 4.98817 5.51621 5.29559 5.14039 5.70904C4.76456 6.12249 4.50399 6.62745 4.38478 7.17332C4.26557 7.7192 4.29191 8.28681 4.46116 8.8193C4.63041 9.35178 4.93663 9.83044 5.34913 10.2073C5.76163 10.5842 6.26593 10.846 6.8115 10.9666C6.71641 11.9874 6.96415 13.0108 7.51558 13.875H2.71875C2.1082 13.875 1.52266 13.6325 1.09093 13.2008C0.659207 12.769 0.416667 12.1835 0.416667 11.5729V4.84378C0.416667 4.23323 0.659207 3.64768 1.09093 3.21596C1.52266 2.78423 2.1082 2.54169 2.71875 2.54169H4.19208L4.81188 1.53303C4.95438 1.30085 5.15403 1.10908 5.39175 0.976019C5.62947 0.84296 5.89733 0.773058 6.16975 0.772986H8.86354V0.772278ZM7.5 5.7292C8.44208 5.7292 9.24038 6.3419 9.51875 7.19049C8.93802 7.4505 8.41728 7.82771 7.9892 8.29845C7.56112 8.7692 7.23492 9.32332 7.03108 9.92607C6.52197 9.81005 6.0734 9.51063 5.77097 9.08496C5.46853 8.65929 5.33342 8.13717 5.3914 7.61824C5.44938 7.0993 5.6964 6.61987 6.08532 6.27145C6.47424 5.92303 6.97783 5.73 7.5 5.7292Z" fill="#570FEF"/>
</svg>
