<svg width="16" height="10" viewBox="0 0 16 10" fill="none" xmlns="http://www.w3.org/2000/svg">
<path d="M15.9998 5.02919C15.8425 5.28092 15.6895 5.53495 15.5268 5.78347C14.688 7.06281 13.6037 8.11568 12.2258 8.89064C11.189 9.47404 10.0699 9.84383 8.86354 9.95729C6.42972 10.1861 4.30864 9.49333 2.46158 8.0206C1.43119 7.19924 0.63413 6.20287 0.0174637 5.07834C-0.0055755 5.03608 -0.00606569 4.9635 0.0174637 4.92169C0.899816 3.32447 2.1204 2.01573 3.77923 1.08918C4.80374 0.517264 5.91011 0.155281 7.10031 0.0431949C9.54001 -0.186949 11.6655 0.508536 13.515 1.98678C14.4905 2.76633 15.2586 3.70437 15.864 4.76137C15.9052 4.83349 15.9547 4.90102 16.0003 4.97085C15.9998 4.99014 15.9998 5.00989 15.9998 5.02919ZM7.98903 1.86919C6.16207 1.85908 4.6704 3.24913 4.64295 4.98784C4.61648 6.6944 6.12972 8.12028 7.97825 8.13084C9.80521 8.14095 11.2969 6.7509 11.3243 5.01219C11.3513 3.30609 9.83805 1.87975 7.98903 1.86919Z" fill="#570FEF"/>
<path d="M9.98722 5.00071C9.98673 6.03337 9.08918 6.87585 7.98722 6.87769C6.87938 6.87953 5.97546 6.03061 5.98036 4.99244C5.98526 3.95978 6.88624 3.12051 7.9882 3.12281C9.09016 3.1251 9.98771 3.96805 9.98722 5.00071Z" fill="#570FEF"/>
</svg>
