<svg width="19" height="18" viewBox="0 0 19 18" fill="none" xmlns="http://www.w3.org/2000/svg">
<path d="M16.625 2.25H15.6609C16.2702 3.24422 16.625 4.39488 16.625 5.625C16.625 9.34699 13.4288 12.375 9.5 12.375C5.57123 12.375 2.375 9.34699 2.375 5.625C2.375 4.39488 2.72977 3.24422 3.3391 2.25H2.375C1.06541 2.25 0 3.25934 0 4.5V15.75C0 16.9907 1.06541 18 2.375 18H16.625C17.9346 18 19 16.9907 19 15.75V4.5C19 3.25934 17.9346 2.25 16.625 2.25ZM9.5 11.25C12.7794 11.25 15.4375 8.73176 15.4375 5.625C15.4375 2.51824 12.7794 0 9.5 0C6.22064 0 3.5625 2.51824 3.5625 5.625C3.5625 8.73176 6.22064 11.25 9.5 11.25ZM9.48887 5.90836L10.735 3.15352C10.8649 2.86629 11.2152 2.73445 11.5154 2.85785C11.8167 2.9802 11.9563 3.31102 11.8275 3.59613L10.578 6.35766C10.8259 6.60938 10.9844 6.9416 10.9844 7.3125C10.9844 8.0891 10.3197 8.71875 9.5 8.71875C8.68025 8.71875 8.01562 8.0891 8.01562 7.3125C8.01562 6.53977 8.67469 5.91434 9.48887 5.90836Z" fill="#FF8E00"/>
</svg>
