<svg width="19" height="20" viewBox="0 0 19 20" fill="none" xmlns="http://www.w3.org/2000/svg">
<path d="M7.50933 20C7.38145 19.9207 7.2392 19.8581 7.12818 19.7589C6.9106 19.5642 6.87243 19.2941 6.87243 19.0114C6.87442 16.6354 6.86698 14.26 6.87838 11.884C6.88086 11.3261 6.73019 10.8476 6.41496 10.394C4.34568 7.41792 2.28632 4.43425 0.223981 1.45261C-0.106608 0.975084 -0.0719138 0.471618 0.332525 0.178692C0.459903 0.0861354 0.633375 0.0576565 0.788509 0.00883556C0.841047 -0.0074381 0.90201 0.00375004 0.959008 0.00375004C6.65535 0.00375004 12.3522 0.00375004 18.0485 0.00375004C18.5565 0.00375004 18.8574 0.212256 18.9724 0.642999C19.0537 0.947113 18.9456 1.20241 18.7776 1.44448C17.8334 2.8074 16.8912 4.17082 15.9475 5.53425C14.8204 7.16263 13.6983 8.79457 12.5638 10.4174C12.2555 10.8583 12.1108 11.3312 12.1138 11.8739C12.1232 13.7875 12.1177 15.7012 12.1172 17.6149C12.1172 18.1738 11.9775 18.3833 11.4685 18.5811C10.2725 19.0465 9.07603 19.5103 7.88006 19.9751C7.86916 19.9792 7.86073 19.9914 7.85131 19.9995C7.73781 20 7.62332 20 7.50933 20Z" fill="#570FEF"/>
</svg>
