<svg width="19" height="20" viewBox="0 0 19 20" fill="none" xmlns="http://www.w3.org/2000/svg">
<path d="M6.33333 9.38889H6.83333V8.88889V2.22222V1.72222H6.33333H2.11111H1.61111V2.22222V8.88889V9.38889H2.11111H6.33333ZM1.61111 17.7778V18.2778H2.11111H6.33333H6.83333V17.7778V15.5556V15.0556H6.33333H2.11111H1.61111V15.5556V17.7778ZM12.1667 17.7778V18.2778H12.6667H16.8889H17.3889V17.7778V11.1111V10.6111H16.8889H12.6667H12.1667V11.1111V17.7778ZM12.6667 1.72222H12.1667V2.22222V4.44444V4.94444H12.6667H16.8889H17.3889V4.44444V2.22222V1.72222H16.8889H12.6667ZM11.0556 19.5V9.38889H18.5V19.5H11.0556ZM0.5 10.6111V0.5H7.94444V10.6111H0.5ZM0.5 19.5V13.8333H7.94444V19.5H0.5ZM11.0556 0.5H18.5V6.16667H11.0556V0.5Z" fill="#474545" stroke="#474545"/>
</svg>
