<svg width="16" height="16" viewBox="0 0 16 16" fill="none" xmlns="http://www.w3.org/2000/svg">
<path d="M14.324 3.75062H13.0429C12.9554 3.75062 12.8734 3.71311 12.8187 3.64703C12.6912 3.49521 12.5545 3.34876 12.4105 3.20944C11.8217 2.63178 11.1243 2.17143 10.3568 1.85384C9.5616 1.52467 8.70694 1.35581 7.84376 1.35732C6.97086 1.35732 6.12529 1.52521 5.33075 1.85384C4.56323 2.17143 3.86578 2.63178 3.27697 3.20944C2.68711 3.78515 2.21677 4.46752 1.892 5.21874C1.55486 5.99746 1.38538 6.8244 1.38538 7.67991C1.38538 8.53543 1.55668 9.36236 1.892 10.1411C2.21637 10.893 2.68289 11.5699 3.27697 12.1504C3.87106 12.7308 4.56172 13.1881 5.33075 13.506C6.12529 13.8346 6.97086 14.0025 7.84376 14.0025C8.71666 14.0025 9.56223 13.8364 10.3568 13.506C11.1258 13.1881 11.8165 12.7308 12.4105 12.1504C12.5545 12.0093 12.6894 11.8628 12.8187 11.7128C12.8734 11.6467 12.9572 11.6092 13.0429 11.6092H14.324C14.4388 11.6092 14.5099 11.7342 14.4461 11.8289C13.0484 13.9579 10.6028 15.367 7.82371 15.3599C3.45739 15.3492 -0.0433308 11.8753 0.000405388 7.60132C0.0441416 3.39519 3.53939 -7.53403e-05 7.84376 -7.53403e-05C10.6155 -7.53403e-05 13.0502 1.40733 14.4461 3.53093C14.5081 3.62559 14.4388 3.75062 14.324 3.75062ZM15.9441 7.79243L13.3582 9.7928C13.2616 9.86781 13.1213 9.79994 13.1213 9.68028L13.1213 8.32289L7.39911 8.32289C7.31893 8.32289 7.25332 8.25859 7.25332 8.18V7.17982C7.25332 7.10123 7.31893 7.03693 7.39911 7.03693H13.1213V5.67954C13.1213 5.55988 13.2634 5.49201 13.3582 5.56702L15.9441 7.56739C15.9615 7.58076 15.9756 7.59783 15.9853 7.61733C15.995 7.63682 16 7.65822 16 7.67991C16 7.7016 15.995 7.723 15.9853 7.74249C15.9756 7.76199 15.9615 7.77907 15.9441 7.79243Z" fill="#8B8B8B"/>
</svg>
