<svg width="139" height="88" viewBox="0 0 139 88" fill="none" xmlns="http://www.w3.org/2000/svg">
<path d="M47.0324 84L90.5043 85.4228L47.0324 86.9024V84Z" fill="#233A4C"/>
<path d="M48.5176 80.813L75.709 82.2927L48.5176 83.7154V80.813Z" fill="#233A4C"/>
<path d="M48.5176 75.7479L68.7969 77.2276L48.5176 78.7073V75.7479Z" fill="#233A4C"/>
<path d="M67.3688 14.8536V73.5284H72.51V14.8536H67.3688Z" fill="#11345B"/>
<path d="M67.3688 74.7236H7.21645C6.4167 74.7236 5.78833 74.0976 5.78833 73.3008V47.0651C5.78833 45.8699 6.4167 44.7317 7.44495 44.1057L11.5008 41.6586L20.1838 18.2114C21.2691 14.7968 24.4681 12.4634 28.067 12.4634H66.2263C67.5402 12.4634 68.6255 13.5447 68.6255 14.8537V73.5285C68.6255 74.2114 68.0543 74.7236 67.3688 74.7236Z" fill="#11345B"/>
<path d="M58.2859 65.2195H68.6255V14.8537C68.6255 13.5447 67.5402 12.4634 66.2263 12.4634H28.067C24.4681 12.4634 21.2691 14.7968 20.1838 18.2114L11.5008 41.6586L7.44495 44.1057C6.4167 44.7317 5.78833 45.8699 5.78833 47.0651V73.3577C5.78833 74.1545 6.4167 74.7805 7.21645 74.7805H25.782C25.7249 74.0976 25.6677 73.4147 25.6677 72.7317C25.6677 63.2846 33.3796 55.6586 42.8051 55.6586C49.603 55.6016 55.4868 59.5285 58.2859 65.2195Z" fill="url(#paint0_linear_28_1733)"/>
<path opacity="0.5" d="M65.4836 65.2195V16.7317C65.4836 15.1382 64.1698 13.8292 62.5703 13.8292H28.067C25.0394 13.8292 22.4116 15.7642 21.4976 18.6097L12.3577 43.4796V68.8617C12.3577 71.3658 14.4142 73.3577 16.8705 73.3577H25.6677C25.6677 73.13 25.6677 72.9024 25.6677 72.6747C25.6677 72.3902 25.6677 72.1056 25.6677 71.8211H16.8705C15.2139 71.8211 13.9 70.5121 13.9 68.8617V43.7642L22.9257 19.1219C23.6112 16.9024 25.6677 15.3658 28.0098 15.3658H62.5132C63.2558 15.3658 63.8842 15.9918 63.8842 16.7317V65.2195H65.4836Z" fill="#F8A71D"/>
<path opacity="0.5" d="M59.8854 15.3658H28.067C25.7249 15.3658 23.6684 16.8455 22.9829 19.065L14.814 40.9756C14.5855 41.7154 14.6998 42.5691 15.2139 43.1951C15.6709 43.8211 16.4135 44.2195 17.2133 44.2195H23.4399C26.3532 44.2195 29.2095 43.1951 31.4373 41.3171L32.2371 40.691C34.3507 38.9268 36.9784 37.9593 39.7204 37.9593H59.8854C61.3707 37.9593 62.5703 36.7642 62.5703 35.2845V18.0406C62.5703 16.561 61.3707 15.3658 59.8854 15.3658Z" fill="#F8A71D"/>
<path d="M62.5703 14.2276H28.067C25.2107 14.2276 22.6972 16.0487 21.8404 18.7804L12.7575 43.4796V43.5365V68.8617C12.7575 71.1382 14.5855 72.9593 16.8705 72.9593H65.0838V16.7317C65.0838 15.3658 63.9413 14.2276 62.5703 14.2276ZM64.3412 72.2195H16.9276C15.0997 72.2195 13.5573 70.7398 13.5573 68.8617V43.7073L22.6401 19.0081C23.3827 16.6178 25.6106 15.0243 28.1241 15.0243H62.6274C63.5985 15.0243 64.3983 15.8211 64.3983 16.7886V72.2195H64.3412Z" fill="#11345B"/>
<path d="M39.7204 37.504H59.8854C61.1422 37.504 62.2275 36.4796 62.2275 35.1707V18.0406C62.2275 16.7886 61.1993 15.7073 59.8854 15.7073H28.067C25.8962 15.7073 24.0111 17.0731 23.3256 19.1788L15.1568 41.0894C14.7569 42.4552 15.728 43.8211 17.1561 43.8211H23.3827C26.239 43.8211 28.981 42.8536 31.1517 41.0325L31.9514 40.4065C34.1222 38.5284 36.8642 37.504 39.7204 37.504Z" fill="#11345B"/>
<path opacity="0.5" d="M61.7134 41.6585H55.4868C54.9156 41.6585 54.4586 42.1138 54.4586 42.6829C54.4586 43.252 54.9156 43.7073 55.4868 43.7073H61.7134C62.2847 43.7073 62.7417 43.252 62.7417 42.6829C62.7417 42.1138 62.2847 41.6585 61.7134 41.6585Z" fill="#F8A71D"/>
<path d="M61.1422 41.1463H54.9156C54.3443 41.1463 53.8873 41.6016 53.8873 42.1707C53.8873 42.7398 54.3443 43.1951 54.9156 43.1951H61.1422C61.7134 43.1951 62.1704 42.7398 62.1704 42.1707C62.1704 41.6016 61.7134 41.1463 61.1422 41.1463Z" fill="#FEECCC"/>
<path d="M9.78705 69.4309H4.41733V58.1626C4.41733 57.1382 3.50333 56.2845 2.47509 56.3983C1.56109 56.5122 0.875595 57.3089 0.875595 58.2195V69.4309V70.8536C0.875595 71.5935 1.27547 72.2195 1.78959 72.6178C2.13234 72.8455 2.53221 72.9593 2.98921 72.9593H4.41733H9.84418C10.8724 72.9593 11.7293 72.0487 11.615 71.0244C11.5579 70.1138 10.701 69.4309 9.78705 69.4309Z" fill="#11345B"/>
<path d="M58.2859 65.2195C59.3713 67.4959 59.9997 70.0569 59.9997 72.7317C59.9997 73.4146 59.9426 74.0975 59.8854 74.7805H67.3688C68.0543 74.7805 68.6255 74.2113 68.6255 73.5284V65.2195H58.2859Z" fill="#11345B"/>
<path d="M17.2704 32.9512L16.1279 32.4959C16.0708 32.439 15.6709 32.4959 15.6709 32.4959C15.3853 32.3821 15.1568 33.0081 15.1568 33.8618V41.7724C15.1568 42.626 15.3853 43.4228 15.6709 43.5366L16.8134 43.9919C16.8705 44.0488 17.2704 43.9919 17.2704 43.9919C17.556 44.1057 17.7845 43.4797 17.7845 42.626V34.7154C17.7845 33.8618 17.556 33.065 17.2704 32.9512Z" fill="#EACFA4"/>
<path d="M16.8134 32.951L15.6709 32.4957C15.3853 32.3819 15.1568 33.0079 15.1568 33.8615V41.7721C15.1568 42.6258 15.3853 43.4225 15.6709 43.5363L16.8134 43.9916C17.099 44.1054 17.3275 43.4794 17.3275 42.6258V34.7152C17.3275 33.8615 17.099 33.0648 16.8134 32.951Z" fill="#FEECCC"/>
<path d="M58.2859 65.2195C55.4868 59.5285 49.6601 55.6016 42.8623 55.6016C42.6338 55.6016 42.4053 55.6016 42.1768 55.6016C48.6319 55.8862 54.173 59.6992 56.8578 65.1626C57.9432 67.439 58.5716 70 58.5716 72.6748C58.5716 73.3577 58.5144 74.0406 58.4573 74.7236H59.8854C59.9426 74.0406 59.9997 73.3577 59.9997 72.6748C59.9997 70 59.3713 67.4959 58.2859 65.2195Z" fill="#FEECCC"/>
<path d="M42.8623 87.8699C51.2543 87.8699 58.0574 81.0923 58.0574 72.7317C58.0574 64.3711 51.2543 57.5935 42.8623 57.5935C34.4702 57.5935 27.6671 64.3711 27.6671 72.7317C27.6671 81.0923 34.4702 87.8699 42.8623 87.8699Z" fill="#233A4C"/>
<path d="M42.8623 86.7317C50.6234 86.7317 56.9149 80.4637 56.9149 72.7317C56.9149 64.9997 50.6234 58.7317 42.8623 58.7317C35.1012 58.7317 28.8096 64.9997 28.8096 72.7317C28.8096 80.4637 35.1012 86.7317 42.8623 86.7317Z" fill="#294259"/>
<path d="M42.8623 82.1219C48.0679 82.1219 52.2878 77.9178 52.2878 72.7317C52.2878 67.5456 48.0679 63.3414 42.8623 63.3414C37.6567 63.3414 33.4367 67.5456 33.4367 72.7317C33.4367 77.9178 37.6567 82.1219 42.8623 82.1219Z" fill="#233A4C"/>
<path d="M42.8623 80.8699C47.3738 80.8699 51.0311 77.2263 51.0311 72.7317C51.0311 68.2371 47.3738 64.5935 42.8623 64.5935C38.3507 64.5935 34.6934 68.2371 34.6934 72.7317C34.6934 77.2263 38.3507 80.8699 42.8623 80.8699Z" fill="#FEECCC"/>
<path d="M47.8892 66.3577C48.9746 67.7235 49.6601 69.4877 49.6601 71.3658C49.6601 75.8617 46.0041 79.504 41.4913 79.504C39.6062 79.504 37.8353 78.8211 36.4643 77.7398C37.9495 79.6178 40.2917 80.813 42.8623 80.813C47.3751 80.813 51.0311 77.1707 51.0311 72.6747C50.974 70.1138 49.7744 67.8373 47.8892 66.3577Z" fill="#D8BF98"/>
<path d="M76.2231 74.7236H181.732C185.046 74.7236 187.673 72.0488 187.673 68.8049V5.9187C187.673 2.61789 184.989 0 181.732 0H76.2231C72.9099 0 70.2821 2.6748 70.2821 5.9187V68.8049C70.2821 72.1057 72.967 74.7236 76.2231 74.7236Z" fill="url(#paint1_linear_28_1733)"/>
<path d="M179.39 74.7236H121.694C120.952 74.7236 120.323 74.0975 120.323 73.3577V48.1463C120.323 47.0081 120.952 45.9268 121.923 45.3008L125.807 42.9106L134.148 20.4878C135.176 17.187 138.261 14.9675 141.688 14.9675H178.305C179.562 14.9675 180.59 15.9919 180.59 17.2439V73.5284C180.59 74.2114 180.076 74.7236 179.39 74.7236Z" fill="#11345B"/>
<path d="M179.447 12.4634H141.288C137.689 12.4634 134.49 14.7968 133.405 18.2114L124.722 41.6016L120.666 44.0488C119.638 44.6748 119.01 45.813 119.01 47.0081V73.3008C119.01 74.0976 119.638 74.7236 120.438 74.7236H139.003C138.946 74.0407 138.889 73.3577 138.889 72.6748C138.889 63.2277 146.601 55.6016 156.026 55.6016C162.824 55.6016 168.651 59.5285 171.45 65.2195C172.535 67.496 173.164 70.0569 173.164 72.7317C173.164 73.4147 173.107 74.0976 173.049 74.7805H180.533C181.218 74.7805 181.79 74.2114 181.79 73.5285V65.2195V14.8537C181.847 13.5447 180.818 12.4634 179.447 12.4634Z" fill="url(#paint2_linear_28_1733)"/>
<path d="M187.731 16.3902H70.2821V33.1219H187.731V16.3902Z" fill="#FEECCC"/>
<path opacity="0.5" d="M183.275 3.69922H74.6807C74.3951 3.69922 74.1095 3.92686 74.1095 4.26832V70.5122C74.1095 70.7968 74.338 71.0813 74.6807 71.0813H183.275C183.56 71.0813 183.846 70.8537 183.846 70.5122V4.26832C183.846 3.98377 183.56 3.69922 183.275 3.69922ZM183.046 4.49597V70.2846H74.9092V4.49597H183.046Z" fill="#F8A71D"/>
<path d="M183.675 3.64227H74.338C74.1666 3.64227 73.9952 3.813 73.9952 3.98374V70.6829C73.9952 70.8536 74.1666 71.0244 74.338 71.0244H183.675C183.846 71.0244 184.017 70.8536 184.017 70.6829V4.04065C184.017 3.813 183.846 3.64227 183.675 3.64227ZM183.618 70.6829H74.338V4.04065H183.618V70.6829Z" fill="#11345B"/>
<path opacity="0.25" d="M183.789 53.6667H74.0524V54.2358H183.789V53.6667Z" fill="#11345B"/>
<defs>
<linearGradient id="paint0_linear_28_1733" x1="37.2284" y1="74.7423" x2="37.2284" y2="12.4675" gradientUnits="userSpaceOnUse">
<stop stop-color="#FE9F0F"/>
<stop offset="1" stop-color="#FDBF2C"/>
</linearGradient>
<linearGradient id="paint1_linear_28_1733" x1="128.993" y1="74.7423" x2="128.993" y2="0" gradientUnits="userSpaceOnUse">
<stop stop-color="#FE9F0F"/>
<stop offset="1" stop-color="#FDBF2C"/>
</linearGradient>
<linearGradient id="paint2_linear_28_1733" x1="150.476" y1="73.941" x2="150.476" y2="0.0103917" gradientUnits="userSpaceOnUse">
<stop stop-color="#FE9F0F"/>
<stop offset="1" stop-color="#FDBF2C"/>
</linearGradient>
</defs>
</svg>
