<svg width="27" height="84" viewBox="0 0 27 84" fill="none" xmlns="http://www.w3.org/2000/svg">
<path d="M19.5621 72.9761L22.6994 77.7005L24.102 82.1666C24.2127 82.4988 24.5449 82.6464 24.8771 82.5357C25.0616 82.4619 25.1724 82.3142 25.2462 82.1297C25.5415 80.9486 26.5749 76.6671 26.3166 76.3349C26.0213 75.9658 23.3269 71.1306 23.3269 71.1306L19.5621 72.9761Z" fill="#570FEF" fill-opacity="0.67"/>
<g opacity="0.6">
<g opacity="0.6">
<g opacity="0.6">
<g opacity="0.6">
<path opacity="0.6" d="M24.8771 82.4988L26.0951 75.9658L26.2059 76.1872C26.3166 76.3718 26.3535 76.5563 26.3166 76.7778C26.2428 77.3314 25.9844 78.8447 25.2093 82.0928C25.2093 82.3142 25.0617 82.4619 24.8771 82.4988Z" fill="white"/>
</g>
</g>
</g>
</g>
<g opacity="0.6">
<g opacity="0.6">
<g opacity="0.6">
<g opacity="0.6">
<g opacity="0.6">
<path opacity="0.6" d="M24.1389 75.0799C24.0651 75.2276 24.1389 75.449 24.2866 75.5229C24.4342 75.5967 24.6556 75.5228 24.7295 75.3752C24.8033 75.2276 24.7295 74.9692 24.5449 74.8954C24.3973 74.8216 24.1758 74.9323 24.1389 75.0799Z" fill="white"/>
</g>
</g>
</g>
</g>
</g>
<path d="M24.6556 79.7305C24.6187 79.7675 24.3604 79.5829 23.9913 79.6198C23.6222 79.6567 23.4007 79.8782 23.3638 79.8782C23.3638 79.8782 23.4007 79.8044 23.4745 79.6936C23.5853 79.6198 23.7329 79.5091 23.9544 79.5091C24.1758 79.4722 24.3604 79.546 24.4711 79.5829C24.6187 79.6567 24.6556 79.7305 24.6556 79.7305Z" fill="#263238"/>
<path d="M24.7295 80.5795C24.7295 80.6164 24.4711 80.5426 24.1758 80.6533C23.8805 80.7271 23.696 80.9117 23.6591 80.8748C23.6222 80.8748 23.8067 80.6164 24.1389 80.5057C24.4711 80.4318 24.7295 80.5426 24.7295 80.5795Z" fill="#263238"/>
<path d="M24.7664 78.5125C24.7664 78.5494 24.3604 78.4756 23.9174 78.5495C23.4376 78.6233 23.1054 78.8816 23.1054 78.8447C23.0685 78.8078 23.4007 78.5495 23.9174 78.4387C24.3973 78.328 24.8033 78.4756 24.7664 78.5125Z" fill="#263238"/>
<path d="M23.9175 76.9623C23.9175 76.9993 23.5853 77.0731 23.2162 77.2576C22.8471 77.4422 22.6256 77.7374 22.6256 77.7005C22.5887 77.7005 22.7733 77.3683 23.1793 77.1469C23.5853 76.9623 23.9175 76.9623 23.9175 76.9623Z" fill="#263238"/>
<path d="M23.0316 75.5598C23.0316 75.5967 22.6625 75.5967 22.3303 75.8551C21.9613 76.0765 21.8136 76.4456 21.7767 76.4087C21.7767 76.4087 21.7767 76.298 21.8505 76.1873C21.9243 76.0396 22.0351 75.892 22.2565 75.7443C22.4411 75.5967 22.6625 75.5598 22.8102 75.5229C22.9578 75.5229 23.0316 75.5598 23.0316 75.5598Z" fill="#263238"/>
<path d="M22.1827 75.5967C22.1827 75.5967 22.1089 75.5598 22.072 75.4121C21.9982 75.3014 21.9243 75.0799 21.9243 74.8585C21.9243 74.7477 21.8874 74.6001 21.9981 74.4525C22.0351 74.3786 22.1458 74.3417 22.2565 74.3417C22.3672 74.3786 22.4042 74.4525 22.478 74.5263C22.6625 74.8216 22.5887 75.3014 22.2934 75.5598C21.9612 75.8181 21.5552 75.8181 21.223 75.6336C21.1492 75.5967 21.0754 75.5228 21.0754 75.4121C21.0754 75.3014 21.1492 75.2276 21.223 75.1907C21.3707 75.1168 21.5183 75.1538 21.6291 75.1538C21.8874 75.1907 22.072 75.2645 22.1827 75.3014C22.2934 75.3752 22.3672 75.4121 22.3672 75.4121C22.3672 75.449 22.1089 75.2645 21.6291 75.2276C21.5183 75.2276 21.3707 75.2276 21.26 75.2645C21.223 75.3014 21.1861 75.3383 21.1861 75.3752C21.1861 75.4121 21.223 75.4859 21.2969 75.5228C21.5552 75.6705 21.9612 75.6705 22.2196 75.449C22.478 75.2276 22.5518 74.8216 22.4042 74.5632C22.3672 74.4894 22.3303 74.4525 22.2565 74.4525C22.2196 74.4525 22.1458 74.4525 22.1089 74.4894C22.0351 74.6001 22.0351 74.7108 22.0351 74.8585C21.9982 75.3014 22.1827 75.5598 22.1827 75.5967Z" fill="#263238"/>
<path d="M16.5724 75.6705L16.2033 80.4319C16.2033 80.4319 20.9278 82.0559 20.9278 82.9417L11.7004 82.9048L11.9587 75.486L16.5724 75.6705Z" fill="#570FEF" fill-opacity="0.67"/>
<g opacity="0.6">
<g opacity="0.6">
<g opacity="0.6">
<g opacity="0.6">
<g opacity="0.6">
<g opacity="0.6">
<g opacity="0.6">
<path opacity="0.6" d="M13.3613 79.9151C13.1768 79.952 13.066 80.1366 13.066 80.3211C13.1029 80.5057 13.2875 80.6533 13.472 80.6164C13.6566 80.5795 13.8042 80.358 13.7673 80.1735C13.7304 79.9889 13.509 79.8413 13.3613 79.9151Z" fill="white"/>
</g>
</g>
</g>
</g>
</g>
</g>
</g>
<g opacity="0.6">
<g opacity="0.6">
<g opacity="0.6">
<g opacity="0.6">
<g opacity="0.6">
<g opacity="0.6">
<path opacity="0.6" d="M11.7004 82.9048L11.7373 82.1666L20.6694 82.4987C20.6694 82.4987 20.9647 82.6464 21.0016 83.0155L11.7004 82.9048Z" fill="white"/>
</g>
</g>
</g>
</g>
</g>
</g>
<path d="M16.351 80.358C16.351 80.3949 16.1295 80.4318 15.9081 80.5426C15.6866 80.6902 15.539 80.8748 15.5021 80.8378C15.4651 80.8378 15.539 80.5426 15.8342 80.3949C16.0926 80.2842 16.3879 80.3211 16.351 80.358Z" fill="#570FEF" fill-opacity="0.2"/>
<path d="M17.3107 80.8009C17.3107 80.8378 17.1261 80.9116 16.9785 81.0962C16.7939 81.2807 16.757 81.4653 16.7201 81.4653C16.6832 81.4653 16.6463 81.2069 16.8677 80.9854C17.0523 80.764 17.3107 80.764 17.3107 80.8009Z" fill="#570FEF" fill-opacity="0.2"/>
<path d="M17.8274 81.982C17.7905 81.982 17.7167 81.7606 17.8643 81.5022C17.975 81.2438 18.1965 81.17 18.2334 81.2069C18.2703 81.2438 18.1227 81.3545 18.0119 81.576C17.9012 81.7975 17.8643 81.982 17.8274 81.982Z" fill="#570FEF" fill-opacity="0.2"/>
<path d="M16.3141 79.2876C16.2772 79.3245 16.0926 79.2507 15.8343 79.2507C15.5759 79.2507 15.3913 79.3245 15.3544 79.2876C15.3175 79.2507 15.539 79.1031 15.8343 79.1031C16.1295 79.1031 16.351 79.2507 16.3141 79.2876Z" fill="#570FEF" fill-opacity="0.2"/>
<g opacity="0.3">
<g opacity="0.3">
<g opacity="0.3">
<g opacity="0.3">
<g opacity="0.3">
<g opacity="0.3">
<path opacity="0.3" d="M16.4986 76.5932L16.4248 77.4421L11.8849 77.2207L11.9218 76.4825L16.4986 76.5932Z" fill="black"/>
</g>
</g>
</g>
</g>
</g>
</g>
<path d="M16.3879 78.328C16.3879 78.3649 16.2033 78.3649 15.9081 78.2911C15.7604 78.2542 15.6128 78.2173 15.4282 78.1065C15.3544 78.0696 15.2437 77.9958 15.1699 77.9589C15.133 77.922 15.0961 77.8851 15.0222 77.8482C14.9853 77.8113 14.9484 77.6636 15.0222 77.5898C15.0591 77.516 15.1699 77.4791 15.2068 77.4791C15.2806 77.4791 15.3175 77.4791 15.3913 77.516C15.5021 77.5529 15.5759 77.5898 15.6866 77.6267C15.8712 77.7005 15.9819 77.8113 16.0926 77.922C16.3141 78.1804 16.3879 78.3649 16.3879 78.328C16.351 78.3649 16.2403 78.2173 16.0557 78.0696C15.945 77.9958 15.7973 77.8851 15.6497 77.8113C15.5759 77.7743 15.4651 77.7374 15.3913 77.7005C15.2806 77.6636 15.2068 77.6636 15.1699 77.7005V77.7374C15.2068 77.7743 15.2437 77.7743 15.2806 77.8113C15.3544 77.8851 15.4282 77.922 15.5021 77.9589C15.6497 78.0327 15.7973 78.1065 15.945 78.1434C16.2033 78.2911 16.3879 78.2911 16.3879 78.328Z" fill="#570FEF" fill-opacity="0.2"/>
<path d="M16.3141 78.4018C16.3141 78.4018 16.2034 78.2542 16.2034 77.9589C16.2034 77.8113 16.2403 77.6267 16.2772 77.4422C16.3141 77.3683 16.351 77.2576 16.3879 77.1838C16.4617 77.11 16.4986 76.9623 16.6832 76.9623C16.757 76.9623 16.8308 77.0362 16.8677 77.11C16.9047 77.1838 16.9047 77.2207 16.9047 77.2945C16.9047 77.4053 16.9047 77.516 16.9047 77.5898C16.8677 77.7744 16.7939 77.9589 16.6832 78.0696C16.4986 78.2911 16.3141 78.3649 16.3141 78.328C16.3141 78.2911 16.4617 78.2173 16.6094 77.9958C16.6832 77.8851 16.757 77.7374 16.757 77.5529C16.757 77.4791 16.757 77.3683 16.757 77.2945C16.757 77.1838 16.7201 77.11 16.6832 77.11C16.6463 77.11 16.5725 77.1838 16.4986 77.2576C16.4617 77.3314 16.4248 77.4053 16.3879 77.516C16.3141 77.6636 16.2772 77.8482 16.2772 77.9589C16.3141 78.2173 16.351 78.3649 16.3141 78.4018Z" fill="#570FEF" fill-opacity="0.2"/>
<path d="M19.9312 36.5832C19.9312 36.5832 21.629 40.0527 22.072 42.5256C22.1827 43.2269 17.2368 78.8447 17.2368 78.8447L11.3682 78.6233L14.1364 45.4784L13.1398 38.8347L19.9312 36.5832Z" fill="#C4C4C4"/>
<path d="M5.64718 38.7239C5.64718 38.7239 5.53645 42.0458 6.01628 45.9213C6.45919 49.4277 7.45575 53.3771 7.78794 55.5916C8.48922 60.5006 9.9287 61.4234 9.9287 61.4234L21.2231 75.855L25.6522 71.8688L15.6866 55.9607C15.6866 55.9607 13.0291 38.281 13.1398 38.7608C13.2137 39.3145 5.64718 38.7239 5.64718 38.7239Z" fill="#C4C4C4"/>
<path d="M10.1501 61.6817C10.1501 61.6817 10.1871 61.7186 10.2609 61.8293C10.3347 61.9401 10.4454 62.0877 10.5931 62.2353C10.8883 62.6044 11.2943 63.1212 11.7742 63.7486C12.7707 65.0405 14.1364 66.849 15.6497 68.8053C17.163 70.7984 18.5286 72.57 19.5621 73.8619C20.0788 74.4893 20.4848 75.0061 20.7801 75.3752C20.9278 75.5597 21.0385 75.6705 21.1123 75.7812C21.1861 75.855 21.223 75.9288 21.223 75.9288C21.223 75.9288 21.1861 75.8919 21.1123 75.7812C21.0385 75.6705 20.9278 75.5228 20.7801 75.3752C20.4848 75.0061 20.0788 74.4893 19.599 73.8619C18.6025 72.57 17.2368 70.7615 15.7235 68.8053C14.2102 66.8121 12.8446 65.0405 11.8111 63.7486C11.2943 63.1212 10.8883 62.6044 10.5931 62.2353C10.4454 62.0508 10.3347 61.9401 10.2609 61.8293C10.1871 61.7186 10.1501 61.6817 10.1501 61.6817Z" fill="#455A64"/>
<path d="M8.89523 41.4552C8.93214 41.4552 8.89523 41.6767 8.74759 42.0089C8.59995 42.341 8.34158 42.784 7.93558 43.1531C7.52957 43.5222 7.08665 43.7805 6.75447 43.8913C6.42228 44.002 6.20082 44.0389 6.20082 44.002C6.16391 43.9282 7.04975 43.7436 7.82485 43.0054C8.56304 42.3041 8.82141 41.4183 8.89523 41.4552Z" fill="#455A64"/>
<path d="M21.0754 39.4252C21.0754 39.4621 20.7063 39.6098 20.2265 39.5359C19.7467 39.4621 19.4145 39.2037 19.4514 39.1668C19.4883 39.1299 19.8205 39.2776 20.2634 39.3514C20.6694 39.4252 21.0385 39.3883 21.0754 39.4252Z" fill="#455A64"/>
<path d="M14.7269 44.3342C14.7269 44.3342 14.7639 44.408 14.7639 44.5556C14.8008 44.7402 14.8008 44.9616 14.8377 45.22C14.9115 45.8475 14.9853 46.6964 15.1329 47.7668C15.3544 49.9444 15.6866 52.9341 16.0557 56.3667V56.3298C16.5724 57.1787 17.1261 58.0646 17.6797 58.9504C19.8943 62.5306 21.8874 65.7418 23.3638 68.104C24.0651 69.2482 24.6556 70.2078 25.0616 70.8722C25.2462 71.2044 25.3938 71.4628 25.5046 71.6473C25.6153 71.8319 25.6522 71.9057 25.6522 71.9057C25.6522 71.9057 25.5784 71.8319 25.4676 71.6473C25.3569 71.4628 25.1724 71.2044 24.9878 70.9091C24.5818 70.2447 23.9544 69.322 23.2162 68.1778C21.7398 65.8156 19.7097 62.6044 17.4952 59.0611C16.9415 58.1753 16.3879 57.2895 15.8711 56.4405V56.4036V56.3667C15.539 52.9341 15.2437 49.9075 15.0222 47.7299C14.9115 46.6595 14.8377 45.8106 14.8008 45.1831C14.7639 44.8878 14.7639 44.6664 14.7639 44.5187C14.69 44.408 14.69 44.3342 14.7269 44.3342Z" fill="#455A64"/>
<path d="M12.9922 13.3301L16.5355 14.4743L16.7939 21.9301C16.7939 21.9301 18.6763 30.6776 19.0823 31.7849C19.8943 33.9626 20.1527 35.8819 20.1527 35.8819C20.1527 35.8819 19.4883 40.8278 14.5424 41.4184C9.59651 41.972 4.9828 39.13 4.9828 39.13C4.9828 39.13 3.32187 31.7849 1.80857 25.1412C0.369095 18.8297 1.5502 15.1018 1.5502 15.1018L6.97592 13.1456L12.9922 13.3301Z" fill="#570FEF"/>
<path d="M15.5864 17.4603L12.3617 17.8504L12.4637 18.6932L15.6883 18.3031L15.5864 17.4603Z" fill="#FAFAFA"/>
<path d="M16.3879 8.53187C16.314 8.16278 15.9819 7.90441 15.6128 7.90441C15.9819 7.68295 15.908 7.05549 15.5389 6.87094C15.908 6.3542 15.7604 5.5791 15.2806 5.1731L11.5527 10.3035C12.1063 10.7834 12.8815 10.931 13.6196 10.8572C14.3578 10.7834 15.0222 10.4881 15.6497 10.119C15.7973 10.0452 15.9819 9.93444 16.0557 9.74989C16.1295 9.56534 16.0188 9.30698 15.8342 9.30698C16.2033 9.27007 16.4617 8.86406 16.3879 8.53187Z" fill="#263238"/>
<path d="M7.16045 5.72669C7.01281 5.68978 6.86518 5.72669 6.75445 5.87433C6.68063 5.98506 6.68063 6.16961 6.75445 6.28034C6.53299 6.24343 6.31153 6.35416 6.16389 6.5387C6.01625 6.72325 6.01625 6.98162 6.12698 7.16617C5.86862 7.16617 5.57334 7.20308 5.38879 7.35072C5.16733 7.49835 5.01969 7.79363 5.09351 8.052C5.16733 8.31037 5.4257 8.53182 5.68407 8.4211C5.57334 8.64255 5.57334 8.93783 5.72098 9.15929C5.86862 9.34384 6.23771 9.38075 6.38535 9.15929C6.23771 9.34384 6.27462 9.63911 6.42226 9.82366C6.5699 10.0082 6.86518 10.0451 7.04972 9.9713C6.9759 10.1928 7.08663 10.488 7.30809 10.5988C7.52955 10.7095 7.78792 10.7095 7.97247 10.5619L7.16045 5.72669Z" fill="#263238"/>
<path d="M7.38197 4.7671L7.23433 13.8469C7.19742 15.3233 8.34162 16.5782 9.818 16.7258C11.442 16.8735 12.8446 15.6185 12.8815 13.9945C12.9184 13.1456 12.9184 12.4074 12.9184 12.4074C12.9184 12.4074 15.133 12.2598 15.3544 10.0821C15.4652 8.79025 15.5021 5.91129 15.5021 3.69672C15.5021 2.22033 14.3579 0.965403 12.8815 0.817764L11.5528 0.707035C9.26436 0.633216 7.38197 2.4787 7.38197 4.7671Z" fill="#FFBE9D"/>
<path d="M12.9184 12.3705C12.9184 12.3705 11.5527 12.3336 10.1502 11.2632C10.1502 11.2632 10.7038 12.9241 12.9184 12.9241V12.3705Z" fill="#EB996E"/>
<path d="M14.9115 5.91127C14.8746 5.94818 14.6532 5.76363 14.321 5.72672C13.9888 5.68981 13.7304 5.83745 13.6935 5.80054C13.6935 5.76363 13.7304 5.72672 13.8412 5.6529C13.9519 5.57909 14.1364 5.54218 14.3579 5.54218C14.5793 5.57908 14.727 5.6529 14.8377 5.72672C14.8746 5.80054 14.9115 5.91127 14.9115 5.91127Z" fill="#263238"/>
<path d="M11.3313 6.05889C11.3313 6.20653 11.1836 6.35417 10.9991 6.35417C10.8145 6.35417 10.7038 6.20653 10.7038 6.05889C10.7038 5.91125 10.8515 5.76361 11.036 5.76361C11.2205 5.76361 11.3313 5.91125 11.3313 6.05889Z" fill="#263238"/>
<path d="M14.5793 6.35418C14.5793 6.50182 14.4317 6.64945 14.2472 6.64945C14.0626 6.64945 13.9519 6.50182 13.9519 6.35418C13.9519 6.20654 14.0995 6.0589 14.2841 6.0589C14.4686 6.0589 14.6162 6.16963 14.5793 6.35418Z" fill="#263238"/>
<path d="M11.6266 5.61598C11.5896 5.65289 11.3682 5.46835 11.036 5.43144C10.7038 5.39453 10.4454 5.54216 10.4085 5.50525C10.4085 5.46834 10.4454 5.43144 10.5562 5.35762C10.6669 5.2838 10.8515 5.24689 11.0729 5.24689C11.2944 5.2838 11.442 5.35762 11.5527 5.43144C11.6266 5.54216 11.6635 5.61598 11.6266 5.61598Z" fill="#263238"/>
<path d="M12.6231 8.23659C12.6231 8.19968 12.8446 8.19968 13.1768 8.19968C13.2506 8.19968 13.3613 8.19968 13.3613 8.12586C13.3982 8.05204 13.3613 7.97822 13.3244 7.86749C13.2506 7.64604 13.2137 7.42458 13.1398 7.20312C12.8815 6.24347 12.6969 5.46837 12.7338 5.43146C12.7707 5.43146 13.0291 6.20656 13.2875 7.16621C13.3613 7.38767 13.3982 7.64604 13.472 7.83058C13.5089 7.94131 13.5458 8.05204 13.472 8.16277C13.4351 8.23659 13.3613 8.2735 13.3244 8.2735C13.2506 8.2735 13.2137 8.2735 13.1768 8.2735C12.8446 8.2735 12.6231 8.23659 12.6231 8.23659Z" fill="#263238"/>
<path d="M11.6266 8.34729C11.6635 8.34729 11.6635 8.71639 11.9218 9.01166C12.2171 9.30694 12.5862 9.30694 12.5862 9.34385C12.5862 9.38076 12.4755 9.41767 12.3279 9.38076C12.1802 9.38076 11.9218 9.30694 11.7742 9.12239C11.5897 8.93784 11.5527 8.71639 11.5527 8.56875C11.5527 8.45802 11.5897 8.34729 11.6266 8.34729Z" fill="#263238"/>
<path d="M11.8111 4.54558C11.7742 4.6194 11.442 4.54558 11.036 4.58249C10.63 4.58249 10.2978 4.65631 10.2609 4.58249C10.224 4.54558 10.2978 4.47176 10.4454 4.39794C10.5931 4.32412 10.7776 4.25031 11.036 4.25031C11.2575 4.25031 11.4789 4.28721 11.6266 4.36103C11.7742 4.43485 11.848 4.50867 11.8111 4.54558Z" fill="#263238"/>
<path d="M14.9484 4.95161C14.8746 5.02543 14.6532 4.9147 14.3948 4.87779C14.1364 4.84088 13.8781 4.87779 13.8411 4.80398C13.8042 4.76707 13.8781 4.69325 13.9888 4.61943C14.0995 4.54561 14.2841 4.5087 14.4686 4.54561C14.6532 4.58252 14.8008 4.65634 14.9115 4.73016C14.9484 4.84088 14.9484 4.9147 14.9484 4.95161Z" fill="#263238"/>
<path d="M7.97251 6.4649C7.9356 6.42799 6.49613 5.87435 6.42231 7.38764C6.34849 8.90094 7.86178 8.64257 7.86178 8.60566C7.86178 8.56875 7.97251 6.4649 7.97251 6.4649Z" fill="#FFBE9D"/>
<path d="M7.45579 8.01509C7.45579 8.01509 7.41888 8.01509 7.38197 8.052C7.34506 8.052 7.27124 8.08891 7.19742 8.052C7.04978 7.97818 6.93905 7.71982 6.93905 7.46145C6.93905 7.31381 6.97596 7.20308 7.04978 7.09235C7.08669 6.98162 7.16051 6.9078 7.27124 6.9078C7.34506 6.9078 7.41888 6.94471 7.41888 6.98162C7.41888 7.01853 7.41888 7.05544 7.41888 7.05544C7.41888 7.05544 7.45579 7.01853 7.45579 6.98162C7.45579 6.94471 7.41888 6.9078 7.41888 6.87089C7.38197 6.83398 7.34506 6.83398 7.27124 6.83398C7.16051 6.83398 7.04978 6.94471 6.97596 7.05544C6.90214 7.16617 6.86523 7.31381 6.86523 7.46145C6.86523 7.75673 7.01287 8.052 7.19742 8.12582C7.30815 8.16273 7.38197 8.12582 7.45579 8.08891C7.45579 8.052 7.45579 8.01509 7.45579 8.01509Z" fill="#EB996E"/>
<path d="M7.16048 6.31727C7.38194 6.28036 7.75104 6.53873 7.86176 6.76018C7.93558 6.98164 7.93558 7.24001 8.0094 7.46147C8.08322 7.68293 8.30468 7.90438 8.52614 7.86747C8.67378 7.83056 8.82142 7.71984 8.85833 7.5722C8.89523 7.42456 8.89523 7.24001 8.89523 7.09237C8.85833 6.39109 8.78451 5.68981 8.82142 4.98852C8.85833 4.28724 9.00596 3.54905 9.44888 2.9954C9.85489 2.44176 10.5931 2.03575 11.2944 2.18339C11.7373 2.25721 12.1433 2.55249 12.6231 2.66321C13.1768 2.77394 13.7673 2.66321 14.1733 2.29412C14.2102 2.25721 14.4686 2.10957 14.4686 2.10957C14.4686 2.07266 14.4686 1.74047 14.3579 1.62974C13.5089 0.707004 11.8849 0.337907 10.6669 0.522455C9.44888 0.707004 8.23086 1.48211 7.6034 2.55249C6.93902 3.58596 6.97593 5.17307 7.16048 6.31727Z" fill="#263238"/>
<path d="M15.7973 3.3276C15.5759 3.77051 15.0222 3.99197 14.5424 3.99197C14.0626 3.99197 13.5828 3.84433 13.1029 3.65978C12.6231 3.47524 11.3682 3.14305 10.8883 3.14305C10.8145 3.14305 10.7407 3.14305 10.7038 3.06923C10.6669 2.99541 10.7407 2.88468 10.8514 2.84777C11.5527 2.40486 13.1398 2.22031 13.9888 2.25722C14.8377 2.29413 15.6497 2.73704 16.0557 3.47524" fill="#263238"/>
<path d="M15.5759 3.3645C15.5759 3.3645 14.9853 2.51558 13.8411 2.36794C12.1433 2.14648 8.89523 2.81086 7.12356 5.72672C7.12356 5.72672 6.8652 4.47179 6.93902 3.80742C6.97592 3.3645 7.49266 0.743915 10.2609 0.153361C10.224 0.153361 14.4317 -1.06466 15.5759 3.3645Z" fill="#FF8E00"/>
<path d="M7.38193 5.17307C8.34158 3.95505 9.59651 2.9954 10.9991 2.25721C12.4016 1.55593 14.6531 0.928463 16.1664 0.670096C16.6093 0.596277 17.0892 0.522457 17.569 0.633186C18.0119 0.743915 18.4548 1.11301 18.5286 1.55593C18.6394 2.14648 17.5321 2.92158 17.0523 3.21686C16.5355 3.51214 15.539 3.95505 15.539 3.95505C15.539 3.95505 15.6497 2.92158 13.9888 2.55249C11.7004 2.07266 7.38193 5.17307 7.38193 5.17307Z" fill="#FF8E00"/>
<path d="M17.8643 0.743904C17.8643 0.780814 17.7166 0.670085 17.3844 0.670085C17.0892 0.670085 16.6093 0.670085 16.0557 0.743904C14.9484 0.928453 13.4351 1.29755 11.848 1.92501C10.2609 2.55248 8.96905 3.43831 8.15703 4.21341C7.75103 4.58251 7.49266 4.9516 7.30811 5.20997C7.16047 5.46834 7.08665 5.65289 7.04974 5.61598C7.04974 5.61598 7.04974 5.57907 7.08665 5.50525C7.12356 5.43143 7.16047 5.3207 7.23429 5.17306C7.38193 4.87778 7.6403 4.50869 8.0463 4.10268C8.85832 3.32758 10.1502 2.40484 11.7742 1.77737C13.3613 1.113 14.9115 0.780814 16.0188 0.633175C16.5724 0.559356 17.0523 0.559356 17.3475 0.596266C17.4952 0.633175 17.6428 0.633175 17.7166 0.670085C17.8274 0.706995 17.8643 0.743904 17.8643 0.743904Z" fill="#263238"/>
<path d="M12.4385 1.33446C12.4385 1.33446 13.2875 0.965365 14.1364 0.928456C13.9887 0.780817 13.878 0.706998 13.6935 0.633179C13.2505 0.670088 12.8076 0.743908 12.3647 0.965365L12.4385 1.33446Z" fill="#FAFAFA"/>
<path d="M15.7973 4.10266C15.945 3.91811 15.945 3.65974 15.8711 3.43829C15.7604 3.21683 15.5389 3.06919 15.3175 3.06919C15.6497 2.95846 15.7973 2.51555 15.6497 2.22027C15.502 1.92499 15.096 1.77735 14.7638 1.88808C14.4317 1.9619 14.1733 2.25718 14.0626 2.58937C13.9149 2.36791 13.6935 2.25718 13.4351 2.25718C13.1767 2.25718 12.9553 2.40482 12.8445 2.62627C12.8076 2.44173 12.5493 2.331 12.3647 2.36791C12.1802 2.40482 12.0325 2.55246 11.848 2.66318C11.7003 2.77391 11.5158 2.88464 11.3312 2.88464L11.1836 2.95846C11.442 3.32756 11.9218 3.4752 12.254 3.29065C12.254 3.54902 12.4385 3.77047 12.66 3.84429C12.8815 3.91811 13.1767 3.80738 13.3244 3.58593C13.3982 3.99193 13.9518 4.17648 14.2471 3.91811C14.3947 4.36103 15.0222 4.54558 15.3913 4.2503C15.5759 4.54558 15.6497 4.91467 15.5389 5.24686C15.7973 5.20995 15.9819 4.98849 16.0557 4.76703C16.0926 4.54558 16.0188 4.2503 15.7973 4.10266Z" fill="#263238"/>
<path d="M9.5596 3.73358C9.04286 3.99195 8.52613 4.21341 8.08321 4.54559C7.6403 4.87778 7.23429 5.28379 6.97592 5.80052L7.71411 6.5018C7.89866 6.57562 8.08321 6.64944 8.23085 6.5018C8.37849 6.35417 8.48922 6.13271 8.45231 5.94816C8.63686 6.02198 8.89522 5.94816 9.00595 5.76361C9.15359 5.61597 9.15359 5.35761 9.07977 5.17306C9.22741 5.13615 9.33814 5.02542 9.37505 4.87778C9.41196 4.73014 9.37505 4.5825 9.26432 4.47177C9.44887 4.47177 9.59651 4.36105 9.67033 4.1765C9.74415 4.06577 9.70724 3.84431 9.5596 3.73358Z" fill="#263238"/>
<path d="M16.5355 14.4374C16.5355 14.4374 18.7132 15.7292 19.3775 16.9103C20.0419 18.0914 23.5114 26.5807 23.3638 27.9832C23.2162 29.3489 19.9312 30.2347 19.9312 30.2347L16.4986 25.8055L18.0488 24.8828L16.4986 21.8931V14.4374H16.5355Z" fill="#DADADA"/>
<path d="M19.9312 30.2347C19.9312 30.2347 11.9956 31.8218 9.11667 28.3893L9.96559 25.4734C9.96559 25.4734 15.2068 26.7283 16.8308 26.1747L19.9312 30.2347Z" fill="#FFBE9D"/>
<path d="M20.7801 23.185C20.817 23.2588 19.8574 23.6279 18.8608 24.403C17.8642 25.1781 17.2368 25.9901 17.163 25.9532C17.1261 25.9532 17.2737 25.7318 17.5321 25.3996C17.7904 25.0674 18.1964 24.6614 18.7132 24.2554C19.2299 23.8494 19.7466 23.591 20.1157 23.4065C20.5217 23.2588 20.7432 23.185 20.7801 23.185Z" fill="#263238"/>
<path d="M18.2333 24.7721C18.1964 24.809 17.9011 24.1446 17.5321 23.3695C17.163 22.5944 16.8308 21.967 16.8677 21.93C16.9046 21.8931 17.3106 22.4837 17.6797 23.2957C18.0488 24.0708 18.2702 24.7352 18.2333 24.7721Z" fill="#263238"/>
<path d="M16.7939 21.1918C16.8308 21.1918 16.757 20.6382 16.6093 19.9738C16.4617 19.3094 16.314 18.7558 16.2771 18.7558C16.2402 18.7558 16.314 19.3094 16.4617 19.9738C16.6093 20.6751 16.757 21.1918 16.7939 21.1918Z" fill="#263238"/>
<path d="M2.54677 15.5447C2.6944 15.6923 4.87207 17.1318 5.61027 19.6048C6.34846 22.0777 7.12356 24.6245 7.12356 24.6245L9.9656 24.9936L8.37849 31.5266C8.37849 31.5266 4.94589 31.1575 3.0635 28.0202C1.18111 24.9198 0 21.0812 0 21.0812C0 21.0812 0.258368 13.1456 2.54677 15.5447Z" fill="#DADADA"/>
<path d="M9.00596 24.8828C9.00596 24.8828 7.78794 22.1884 7.6403 22.1515C7.49267 22.1146 5.16736 21.3026 5.16736 21.3026C5.16736 21.3026 5.05663 21.6348 5.16736 21.8932L4.31844 22.0039C4.31844 22.0039 4.42916 22.5206 4.72444 22.5944L4.42916 22.8528C4.42916 22.8528 4.68753 23.185 4.98281 23.3326C5.315 23.4803 5.53645 23.3326 5.53645 23.3326C5.53645 23.3326 5.42572 23.5172 5.90555 23.8125C6.38538 24.1077 7.19739 24.5507 7.19739 24.5507L9.00596 24.8828Z" fill="#FFBE9D"/>
<path d="M7.19739 24.5507C7.19739 24.5507 6.38538 24.1077 5.90555 23.8125C5.49954 23.5541 5.49954 23.3696 5.53645 23.3326C5.46263 23.3696 5.27809 23.4434 4.98281 23.3326C4.65062 23.185 4.42916 22.8528 4.42916 22.8528L4.72444 22.5944C4.46607 22.5206 4.31844 22.0408 4.31844 22.0039L5.16736 21.8932C5.05663 21.6348 5.16736 21.3026 5.16736 21.3026C5.20427 21.3026 7.49267 22.1146 7.6403 22.1515C7.78794 22.1884 8.96905 24.7721 9.00596 24.8828L7.19739 24.5507ZM5.16736 21.8563L4.31844 21.967C4.31844 22.0408 4.46607 22.4837 4.72444 22.5575L4.42916 22.8528C4.46607 22.8897 4.68753 23.185 4.98281 23.3326C5.27809 23.4803 5.53645 23.3326 5.53645 23.3326H5.57336V23.3696C5.57336 23.3696 5.46263 23.5541 5.94246 23.8494C6.42229 24.1447 7.19739 24.5876 7.2343 24.5876L9.00596 24.8828C8.59995 23.9601 7.78794 22.1884 7.6403 22.1515C7.49267 22.1146 5.27809 21.3395 5.16736 21.3026C5.13045 21.3395 5.05663 21.6348 5.16736 21.8563Z" fill="#EB996E"/>
<path d="M5.20425 21.8931C5.20425 21.93 5.86863 22.1884 6.71755 22.4837C6.93901 22.5575 7.12356 22.6313 7.3081 22.7052C7.49265 22.779 7.56647 22.9266 7.64029 23.0373C7.78793 23.2957 7.82484 23.4803 7.86175 23.4433C7.86175 23.4433 7.86175 23.2588 7.71411 22.9635C7.64029 22.8159 7.52956 22.6682 7.34501 22.5575C7.16046 22.4468 6.93901 22.4099 6.75446 22.3361C5.94245 22.0777 5.24116 21.8562 5.20425 21.8931Z" fill="#EB996E"/>
<path d="M4.68753 22.5575C4.68753 22.5575 4.83517 22.6313 5.09354 22.7051C5.3519 22.779 5.721 22.8528 6.12701 22.9635C6.53301 23.0742 6.8652 23.2219 7.08666 23.4064C7.30812 23.5541 7.38193 23.7017 7.41884 23.7017C7.41884 23.7017 7.34502 23.5171 7.16048 23.3326C6.93902 23.1481 6.60683 22.9635 6.20083 22.8528C5.79482 22.742 5.42572 22.7051 5.13045 22.6313C4.83517 22.5944 4.68753 22.5575 4.68753 22.5575Z" fill="#EB996E"/>
<path d="M6.82829 23.8125C6.8652 23.7756 6.64375 23.5541 6.27465 23.4434C5.90555 23.2957 5.61028 23.3327 5.61028 23.3696C5.61028 23.4065 5.90555 23.4434 6.23774 23.5541C6.53302 23.6648 6.79138 23.8125 6.82829 23.8125Z" fill="#EB996E"/>
<path d="M9.74416 25.6948L16.9046 22.0777L18.2334 24.7352C18.2334 24.7352 11.6265 31.2682 8.56305 31.1944" fill="#FFBE9D"/>
<path d="M5.38881 18.1284C5.38881 18.1284 5.42572 18.3498 5.49954 18.6451C5.57336 18.9773 5.68409 19.4202 5.83172 19.9C5.97936 20.3798 6.09009 20.8228 6.20082 21.1549C6.31155 21.4871 6.38537 21.6717 6.38537 21.6717C6.38537 21.6717 6.34846 21.4502 6.27464 21.1549C6.20082 20.8228 6.09009 20.3798 5.94245 19.9C5.79482 19.4202 5.68409 18.9773 5.57336 18.6451C5.46263 18.3129 5.38881 18.1284 5.38881 18.1284Z" fill="#570FEF"/>
<path d="M5.68408 27.0236C5.72099 27.0236 5.7579 26.6914 5.94245 26.1747C6.01627 25.9163 6.16391 25.621 6.38537 25.3627C6.60682 25.1043 6.9021 24.8459 7.30811 24.7721C7.71411 24.6983 8.08321 24.8459 8.45231 24.9198C8.78449 24.9936 9.11668 25.0674 9.37505 25.1043C9.52268 25.1412 9.63341 25.1412 9.70723 25.1781C9.81796 25.215 9.85487 25.2888 9.89178 25.3627C9.92869 25.5103 9.85487 25.5841 9.89178 25.5841C9.89178 25.5841 10.0025 25.5103 9.9656 25.3627C9.92869 25.2888 9.89178 25.1781 9.78105 25.1412C9.67032 25.0674 9.55959 25.0674 9.41196 25.0305C9.15359 24.9567 8.8214 24.8828 8.48922 24.809C8.15703 24.7352 7.75102 24.6245 7.30811 24.6614C6.86519 24.7352 6.533 24.9936 6.31155 25.2888C6.09009 25.5841 5.97936 25.9163 5.90554 26.1747C5.83172 26.433 5.79481 26.6545 5.7579 26.8021C5.68408 26.9129 5.68408 27.0236 5.68408 27.0236Z" fill="#570FEF"/>
<path d="M4.72444 25.5841C4.76135 25.621 4.9459 25.0674 5.49955 24.6983C6.05319 24.3292 6.60683 24.2554 6.60683 24.2185C6.60683 24.2185 6.4592 24.1815 6.23774 24.2554C6.01628 24.2923 5.721 24.403 5.42573 24.5876C5.13045 24.7721 4.9459 25.0305 4.83517 25.2519C4.72444 25.4365 4.68753 25.5841 4.72444 25.5841Z" fill="#570FEF"/>
<path d="M0 21.0811C0 21.0811 0 21.118 0.0369096 21.2288C0.0738193 21.3395 0.110729 21.4502 0.184548 21.6348C0.295277 22.0039 0.479825 22.4837 0.664374 23.0742C0.885831 23.6279 1.1442 24.3661 1.47639 25.1412C1.84548 25.9163 2.25149 26.7652 2.76822 27.6141C3.28496 28.463 3.91242 29.2012 4.53989 29.718C5.20426 30.2716 5.86863 30.6776 6.45919 30.8991C7.04974 31.1574 7.56648 31.2682 7.93557 31.3051C8.12012 31.342 8.26776 31.342 8.34158 31.342C8.45231 31.342 8.48922 31.342 8.48922 31.342C8.48922 31.342 8.30467 31.3051 7.93557 31.2682C7.56648 31.1944 7.08665 31.0836 6.4961 30.8253C5.3519 30.3085 3.8386 29.2012 2.87895 27.5403C2.36222 26.6914 1.95621 25.8425 1.58711 25.1043C1.21802 24.3292 0.959651 23.6279 0.738193 23.0004C0.516735 22.4099 0.332187 21.8931 0.221458 21.5609C0.147639 21.4133 0.110729 21.2657 0.0738193 21.1918C0.0369096 21.118 0 21.0811 0 21.0811Z" fill="#570FEF"/>
<path d="M2.06694 15.6923C2.06694 15.7292 2.62058 15.9138 3.24805 16.2829C3.87551 16.652 4.31843 17.058 4.35534 17.0211C4.39225 16.9842 3.94933 16.5412 3.32187 16.1721C2.65749 15.84 2.06694 15.6923 2.06694 15.6923Z" fill="#570FEF"/>
<path d="M7.49265 33.1137C7.49265 33.1137 7.60337 33.1875 7.86174 33.2982C7.97247 33.372 8.12011 33.4089 8.30466 33.4828C8.48921 33.5566 8.67375 33.6304 8.89521 33.7042C9.33813 33.8519 9.89177 34.0364 10.4823 34.184C11.1098 34.3317 11.7742 34.4424 12.4754 34.5162C13.2136 34.5901 13.878 34.5901 14.5055 34.5531C15.1329 34.5162 15.6866 34.4424 16.1664 34.3686C16.3879 34.3317 16.6093 34.2948 16.7939 34.2579C16.9784 34.221 17.1261 34.184 17.2737 34.1471C17.5321 34.0733 17.6797 34.0364 17.6797 34.0364C17.6797 34.0364 17.5321 34.0364 17.2737 34.1102C17.163 34.1471 16.9784 34.184 16.7939 34.184C16.6093 34.221 16.3879 34.2579 16.1664 34.2948C15.6866 34.3686 15.1329 34.4055 14.5055 34.4424C13.878 34.4793 13.2136 34.4424 12.4754 34.4055C11.7742 34.3317 11.0729 34.221 10.4823 34.1102C9.89177 33.9626 9.33813 33.8149 8.89521 33.6673C8.67375 33.5935 8.48921 33.5197 8.30466 33.4459C8.12011 33.372 7.97247 33.3351 7.86174 33.2613C7.64028 33.1506 7.49265 33.0768 7.49265 33.1137Z" fill="#263238"/>
<path d="M13.2875 36.8046C13.2875 36.8415 13.9518 36.6939 14.727 36.4355C15.5021 36.1772 16.1295 35.8819 16.0926 35.845C16.0926 35.8081 15.4651 36.0295 14.69 36.2879C13.9149 36.5832 13.2875 36.7677 13.2875 36.8046Z" fill="#263238"/>
<g opacity="0.3">
<g opacity="0.3">
<path opacity="0.3" d="M18.7501 30.4193C17.0523 30.6776 15.4651 30.8253 13.8042 30.4931C13.2137 30.3824 12.5862 30.1609 11.9587 30.2716C11.442 30.3455 10.9991 30.6038 10.5192 30.8253C8.85831 31.5266 6.82828 31.3051 5.31499 30.2716C5.79481 31.3051 6.9021 31.9695 8.00939 32.154C9.15359 32.3386 10.2978 32.154 11.4051 31.8587C12.0695 31.6742 12.7338 31.4897 13.4351 31.4527C14.3209 31.4158 15.1699 31.7111 16.0188 31.7111C16.9784 31.7111 18.0857 31.4527 18.8608 30.8622L18.7501 30.4193Z" fill="black"/>
</g>
</g>
<g opacity="0.3">
<g opacity="0.3">
<g opacity="0.3">
<g opacity="0.3">
<path opacity="0.3" d="M15.945 36.1033C15.2068 37.3214 13.878 38.1703 12.4754 38.3179C12.1802 38.3548 11.848 38.3548 11.5527 38.2441C11.2574 38.1334 10.9991 37.9488 10.8514 37.6535C11.1836 37.4321 11.5527 37.3214 11.9218 37.2106C13.2506 36.8415 14.5793 36.4724 15.908 36.1033" fill="black"/>
</g>
</g>
</g>
</g>
<path d="M18.0857 24.8828C18.0857 24.8828 17.975 24.9935 17.7535 25.215C17.5321 25.4364 17.2368 25.7317 16.8677 26.1008C16.4986 26.4699 16.0557 26.9497 15.539 27.3926C15.0222 27.8725 14.3948 28.3154 13.7673 28.8321C13.1398 29.3119 12.4755 29.7549 11.8849 30.124C11.2943 30.4931 10.7038 30.7514 10.1871 30.8991C9.67032 31.0836 9.26432 31.1574 8.96904 31.1943C8.67376 31.2312 8.52612 31.2312 8.52612 31.2312C8.52612 31.1943 9.1905 31.1574 10.1501 30.7883C10.63 30.6038 11.2205 30.3454 11.8111 29.9763C12.4016 29.6072 13.0291 29.1643 13.6566 28.6845C14.284 28.2047 14.9115 27.7248 15.4282 27.2819C15.945 26.839 16.3879 26.3961 16.7939 26.027C17.163 25.6579 17.4952 25.3626 17.7166 25.1781C17.9381 24.9566 18.0857 24.8459 18.0857 24.8828Z" fill="#EB996E"/>
</svg>
