<svg width="360" height="30" viewBox="0 0 360 30" fill="none" xmlns="http://www.w3.org/2000/svg">
<path d="M284.31 4.27637L284.024 4.84547L283.853 5.13002L283.739 5.41458L283.51 5.98368L283.339 6.55279L283.224 6.83734L283.167 7.12189C283.11 7.34954 283.053 7.52027 283.053 7.74791C282.939 8.37393 282.882 9.05685 282.882 9.68287C282.767 9.39832 282.653 9.05685 282.539 8.71539C282.31 7.97555 282.082 7.17881 281.968 6.43897C282.025 7.23572 282.082 8.03246 282.253 8.82921C282.31 9.11376 282.368 9.45523 282.482 9.73978C281.796 8.99995 281.054 8.31702 280.311 7.691C279.911 7.40645 279.511 7.06498 279.054 6.83734C278.826 6.72352 278.654 6.55279 278.426 6.43897L277.74 6.09751C277.512 5.98368 277.283 5.86986 277.055 5.75604L276.369 5.41458C275.912 5.24384 275.455 5.07311 274.941 4.84547C275.398 5.07311 275.855 5.24385 276.312 5.47149L276.941 5.81295C277.169 5.92677 277.398 6.04059 277.569 6.21133L278.197 6.6097C278.426 6.72352 278.597 6.89425 278.826 7.06498C279.226 7.34954 279.626 7.691 279.968 7.97555C280.711 8.65848 281.396 9.34141 281.968 10.1382C282.139 10.3089 282.253 10.5365 282.367 10.7073C282.482 10.9349 282.653 11.1056 282.767 11.3333C282.939 11.6178 283.11 11.9593 283.224 12.2438C283.281 12.4146 283.339 12.5284 283.396 12.6991L284.195 12.3008C284.138 12.13 284.024 11.9593 283.967 11.8455C283.91 11.6747 283.853 11.4471 283.796 11.2764C283.681 10.878 283.624 10.5365 283.567 10.1382C283.453 9.34141 283.453 8.54466 283.51 7.74791C283.51 7.52027 283.567 7.34954 283.567 7.12189L283.624 6.83734L283.681 6.55279L283.796 5.98368L283.967 5.41458L284.081 5.13002L284.195 4.84547L284.424 4.27637C284.595 3.87799 284.767 3.53653 284.995 3.19507C284.767 3.53653 284.538 3.87799 284.31 4.27637Z" fill="#89A51D"/>
<path d="M298.991 0.634094C289.394 0.634094 281.625 8.37393 281.625 17.9349H316.414C316.414 8.43084 308.645 0.634094 298.991 0.634094Z" fill="#89A51D"/>
<path d="M274.656 7.065C268.6 7.065 263.688 11.9593 263.688 17.9918H285.624C285.624 11.9593 280.711 7.065 274.656 7.065Z" fill="#89A51D"/>
<path opacity="0.3" d="M274.656 7.065C274.084 7.065 273.513 7.12192 272.942 7.17883C278.197 7.97557 282.196 12.5284 282.196 17.9349H285.624C285.624 11.9593 280.711 7.065 274.656 7.065Z" fill="#89A51D"/>
<path opacity="0.3" d="M298.991 0.634094C298.477 0.634094 297.963 0.634093 297.391 0.691004C306.246 1.48775 313.215 8.88612 313.215 17.9349H316.357C316.414 8.43084 308.645 0.634094 298.991 0.634094Z" fill="#89A51D"/>
<path d="M293.678 10.0813C295.666 10.0813 297.277 8.47609 297.277 6.49595C297.277 4.5158 295.666 2.91058 293.678 2.91058C291.691 2.91058 290.079 4.5158 290.079 6.49595C290.079 8.47609 291.691 10.0813 293.678 10.0813Z" fill="#A0BE26"/>
<path d="M287.623 10.7073C288.475 10.7073 289.165 10.0194 289.165 9.17074C289.165 8.32211 288.475 7.63416 287.623 7.63416C286.771 7.63416 286.081 8.32211 286.081 9.17074C286.081 10.0194 286.771 10.7073 287.623 10.7073Z" fill="#A0BE26"/>
<path d="M271.342 12.1301C272.352 12.1301 273.17 11.3147 273.17 10.3089C273.17 9.30315 272.352 8.48779 271.342 8.48779C270.333 8.48779 269.514 9.30315 269.514 10.3089C269.514 11.3147 270.333 12.1301 271.342 12.1301Z" fill="#A0BE26"/>
<path d="M268.258 12.4715C268.699 12.4715 269.057 12.1148 269.057 11.6747C269.057 11.2347 268.699 10.878 268.258 10.878C267.816 10.878 267.458 11.2347 267.458 11.6747C267.458 12.1148 267.816 12.4715 268.258 12.4715Z" fill="#A0BE26"/>
<path d="M120.933 8.31698L120.705 8.71535L120.59 8.94299L120.476 9.17063L120.305 9.62592L120.133 10.0812L120.076 10.3088L120.019 10.5365C119.962 10.7072 119.962 10.821 119.905 10.9918C119.791 11.504 119.791 11.9593 119.791 12.4714C119.676 12.2438 119.619 12.0162 119.505 11.7316C119.334 11.1625 119.162 10.5934 119.048 9.96738C119.048 10.5934 119.162 11.1625 119.276 11.7885C119.334 12.0162 119.391 12.2438 119.448 12.4714C118.934 11.9023 118.362 11.3901 117.791 10.9349C117.448 10.7072 117.163 10.4796 116.82 10.2519C116.649 10.1381 116.477 10.0243 116.306 9.96738L115.792 9.68283C115.62 9.56901 115.449 9.5121 115.278 9.45519L114.764 9.22754C114.421 9.05681 114.021 8.94299 113.678 8.82917C114.021 8.9999 114.364 9.17063 114.706 9.34136L115.221 9.62592C115.392 9.73974 115.563 9.79665 115.735 9.91047L116.192 10.195C116.363 10.3088 116.477 10.4227 116.649 10.5365C116.934 10.7641 117.22 10.9918 117.563 11.2194C118.134 11.7316 118.648 12.3007 119.105 12.8698C119.219 13.0406 119.334 13.1544 119.448 13.3251C119.562 13.4958 119.676 13.6097 119.733 13.7804C119.848 14.008 120.019 14.2357 120.076 14.5202C120.133 14.634 120.133 14.7479 120.19 14.8617L120.819 14.5771C120.762 14.4633 120.705 14.3495 120.647 14.2357C120.59 14.1219 120.533 13.9511 120.476 13.7804C120.419 13.4958 120.305 13.2113 120.305 12.8698C120.19 12.2438 120.19 11.6747 120.248 11.0487C120.248 10.8779 120.305 10.7641 120.305 10.5934L120.362 10.3658L120.419 10.1381L120.533 9.68283L120.647 9.22754L120.705 8.9999L120.819 8.77226L120.99 8.31698C121.104 8.03242 121.276 7.74787 121.39 7.46332C121.276 7.80478 121.047 8.08933 120.933 8.31698Z" fill="#475D05"/>
<path d="M132.129 5.58533C124.76 5.58533 118.819 11.504 118.819 18.8455H145.382C145.44 11.504 139.499 5.58533 132.129 5.58533Z" fill="#62820F"/>
<path d="M113.564 10.4796C108.937 10.4796 105.224 14.2356 105.224 18.7885H121.961C121.904 14.2356 118.191 10.4796 113.564 10.4796Z" fill="#62820F"/>
<path d="M113.564 10.4796C113.107 10.4796 112.65 10.5365 112.25 10.5934C116.249 11.2194 119.276 14.6909 119.276 18.8454H121.904C121.904 14.2357 118.191 10.4796 113.564 10.4796Z" fill="#475D05"/>
<path d="M132.129 5.58533C131.73 5.58533 131.33 5.58533 130.93 5.64224C137.728 6.26825 143.04 11.9024 143.04 18.8455H145.44C145.44 11.504 139.499 5.58533 132.129 5.58533Z" fill="#475D05"/>
<path d="M128.074 12.8129C129.588 12.8129 130.816 11.5899 130.816 10.0812C130.816 8.57252 129.588 7.34949 128.074 7.34949C126.559 7.34949 125.332 8.57252 125.332 10.0812C125.332 11.5899 126.559 12.8129 128.074 12.8129Z" fill="#89A51D"/>
<path d="M123.447 13.2113C124.077 13.2113 124.589 12.7017 124.589 12.0731C124.589 11.4445 124.077 10.9349 123.447 10.9349C122.816 10.9349 122.304 11.4445 122.304 12.0731C122.304 12.7017 122.816 13.2113 123.447 13.2113Z" fill="#89A51D"/>
<path d="M110.993 14.3495C111.75 14.3495 112.364 13.738 112.364 12.9837C112.364 12.2293 111.75 11.6178 110.993 11.6178C110.236 11.6178 109.622 12.2293 109.622 12.9837C109.622 13.738 110.236 14.3495 110.993 14.3495Z" fill="#89A51D"/>
<path d="M108.651 14.5771C108.967 14.5771 109.222 14.3223 109.222 14.008C109.222 13.6937 108.967 13.4389 108.651 13.4389C108.336 13.4389 108.08 13.6937 108.08 14.008C108.08 14.3223 108.336 14.5771 108.651 14.5771Z" fill="#89A51D"/>
<path d="M20.9648 4.27637L20.6791 4.84547L20.5078 5.13002L20.3935 5.41458L20.165 5.98368L19.9936 6.55279L19.8794 6.83734L19.8223 7.12189C19.7652 7.34954 19.708 7.52027 19.708 7.74791C19.5938 8.37393 19.5367 9.05685 19.5367 9.68287C19.4224 9.39832 19.3082 9.05685 19.1939 8.71539C18.9654 7.97555 18.7369 7.17881 18.6227 6.43897C18.6798 7.23572 18.7369 8.03246 18.9083 8.82921C18.9654 9.11376 19.0225 9.45523 19.1368 9.73978C18.4513 8.99995 17.7087 8.31702 16.966 7.691C16.5662 7.40645 16.1663 7.06498 15.7093 6.83734C15.4808 6.72352 15.3094 6.55279 15.0809 6.43897L14.3954 6.09751C14.1669 5.98368 13.9384 5.86986 13.7099 5.75604L13.0244 5.41458C12.5674 5.24384 12.1104 5.07311 11.5963 4.84547C12.0533 5.07311 12.5103 5.24385 12.9673 5.47149L13.5957 5.81295C13.8242 5.92677 14.0527 6.04059 14.2241 6.21133L14.8524 6.6097C15.0809 6.72352 15.2523 6.89425 15.4808 7.06498C15.8807 7.34954 16.2805 7.691 16.6233 7.97555C17.3659 8.65848 18.0514 9.34141 18.6227 10.1382C18.794 10.3089 18.9083 10.5365 19.0225 10.7073C19.1368 10.9349 19.3082 11.1056 19.4224 11.3333C19.5938 11.6178 19.7651 11.9593 19.8794 12.2438C19.9365 12.4146 19.9936 12.5284 20.0508 12.6991L20.8505 12.3008C20.7934 12.13 20.6791 11.9593 20.622 11.8455C20.5649 11.6747 20.5078 11.4471 20.4506 11.2764C20.3364 10.878 20.2793 10.5365 20.2221 10.1382C20.1079 9.34141 20.1079 8.54466 20.165 7.74791C20.165 7.52027 20.2221 7.34954 20.2221 7.12189L20.2793 6.83734L20.3364 6.55279L20.4506 5.98368L20.622 5.41458L20.7363 5.13002L20.8505 4.84547L21.079 4.27637C21.2504 3.87799 21.4218 3.53653 21.6503 3.19507C21.4218 3.53653 21.1933 3.87799 20.9648 4.27637Z" fill="#89A51D"/>
<path d="M35.7029 0.634094C26.0489 0.634094 18.2799 8.43084 18.2799 17.9918H53.0689C53.0689 8.43084 45.2999 0.634094 35.7029 0.634094Z" fill="#89A51D"/>
<path d="M11.3107 7.065C5.25547 7.065 0.342743 11.9593 0.342743 17.9918H22.2786C22.2786 11.9593 17.3659 7.065 11.3107 7.065Z" fill="#89A51D"/>
<path opacity="0.3" d="M11.3107 7.065C10.7394 7.065 10.1682 7.12192 9.59695 7.17883C14.8524 7.97557 18.8512 12.5284 18.8512 17.9349H22.2786C22.2786 11.9593 17.3659 7.065 11.3107 7.065Z" fill="#89A51D"/>
<path opacity="0.3" d="M35.7029 0.634094C35.1888 0.634094 34.6747 0.634093 34.1035 0.691004C42.9578 1.48775 49.927 8.88612 49.927 17.9349H53.0689C53.0689 8.43084 45.2999 0.634094 35.7029 0.634094Z" fill="#89A51D"/>
<path d="M30.3332 10.0813C32.3208 10.0813 33.9321 8.47609 33.9321 6.49595C33.9321 4.5158 32.3208 2.91058 30.3332 2.91058C28.3456 2.91058 26.7343 4.5158 26.7343 6.49595C26.7343 8.47609 28.3456 10.0813 30.3332 10.0813Z" fill="#A0BE26"/>
<path d="M24.278 10.7073C25.1298 10.7073 25.8204 10.0194 25.8204 9.17074C25.8204 8.32211 25.1298 7.63416 24.278 7.63416C23.4262 7.63416 22.7356 8.32211 22.7356 9.17074C22.7356 10.0194 23.4262 10.7073 24.278 10.7073Z" fill="#A0BE26"/>
<path d="M7.99746 12.1301C9.00703 12.1301 9.82545 11.3147 9.82545 10.3089C9.82545 9.30315 9.00703 8.48779 7.99746 8.48779C6.98788 8.48779 6.16946 9.30315 6.16946 10.3089C6.16946 11.3147 6.98788 12.1301 7.99746 12.1301Z" fill="#A0BE26"/>
<path d="M4.91272 12.4715C5.35441 12.4715 5.71247 12.1148 5.71247 11.6747C5.71247 11.2347 5.35441 10.878 4.91272 10.878C4.47103 10.878 4.11298 11.2347 4.11298 11.6747C4.11298 12.1148 4.47103 12.4715 4.91272 12.4715Z" fill="#A0BE26"/>
<path d="M218.616 9.8537L218.445 10.2521L218.331 10.4228L218.274 10.5935L218.102 10.9919L217.988 11.3903L217.931 11.6179L217.874 11.8456C217.817 11.9594 217.817 12.1301 217.759 12.2439C217.702 12.6992 217.645 13.0976 217.645 13.5529C217.588 13.3252 217.474 13.1545 217.417 12.9269C217.245 12.4147 217.131 11.9025 217.017 11.3903C217.017 11.9025 217.074 12.4716 217.188 12.9838C217.245 13.2114 217.302 13.3822 217.36 13.6098C216.903 13.0976 216.388 12.6423 215.874 12.2439C215.589 12.0732 215.303 11.8456 215.017 11.6748C214.846 11.561 214.732 11.5041 214.56 11.3903L214.103 11.1626C213.932 11.1057 213.818 10.9919 213.646 10.935L213.189 10.7074C212.904 10.5935 212.561 10.4797 212.218 10.3659C212.504 10.5366 212.847 10.6504 213.132 10.8212L213.589 11.0488C213.761 11.1057 213.875 11.2196 214.046 11.2765L214.446 11.561C214.56 11.6748 214.732 11.7318 214.846 11.8456C215.132 12.0163 215.36 12.2439 215.646 12.4716C216.16 12.9269 216.617 13.3822 217.017 13.9513C217.131 14.0651 217.188 14.2358 217.302 14.3496C217.417 14.4635 217.474 14.6342 217.588 14.748C217.702 14.9757 217.817 15.1464 217.931 15.374C217.988 15.4878 217.988 15.6017 218.045 15.6586L218.559 15.374C218.502 15.2602 218.445 15.1464 218.388 15.0326C218.331 14.9187 218.274 14.8049 218.274 14.6342C218.216 14.4065 218.159 14.122 218.102 13.8374C218.045 13.3252 217.988 12.7561 218.045 12.2439C218.045 12.1301 218.102 11.9594 218.102 11.8456L218.159 11.6179L218.216 11.4472L218.331 11.0488L218.445 10.6505L218.502 10.4797L218.559 10.309L218.731 9.91061C218.845 9.68297 218.959 9.39842 219.13 9.17078C218.902 9.39842 218.788 9.62606 218.616 9.8537Z" fill="#89A51D"/>
<path d="M228.499 7.40649C222.044 7.40649 216.788 12.6423 216.788 19.0732H240.152C240.209 12.6423 234.954 7.40649 228.499 7.40649Z" fill="#89A51D"/>
<path d="M212.161 11.7318C208.105 11.7318 204.792 15.0326 204.792 19.0732H219.53C219.53 15.0326 216.217 11.7318 212.161 11.7318Z" fill="#89A51D"/>
<path opacity="0.3" d="M212.161 11.7318C211.761 11.7318 211.361 11.7887 211.019 11.8456C214.56 12.4147 217.245 15.4309 217.245 19.0732H219.53C219.53 15.0326 216.217 11.7318 212.161 11.7318Z" fill="#89A51D"/>
<path opacity="0.3" d="M228.499 7.40649C228.156 7.40649 227.813 7.4065 227.471 7.46341C233.412 7.9756 238.096 12.9837 238.096 19.0732H240.209C240.209 12.6423 234.954 7.40649 228.499 7.40649Z" fill="#89A51D"/>
<path d="M224.9 13.7235C226.225 13.7235 227.299 12.6534 227.299 11.3333C227.299 10.0132 226.225 8.94305 224.9 8.94305C223.575 8.94305 222.501 10.0132 222.501 11.3333C222.501 12.6534 223.575 13.7235 224.9 13.7235Z" fill="#A0BE26"/>
<path d="M220.844 14.1788C221.412 14.1788 221.872 13.7202 221.872 13.1545C221.872 12.5887 221.412 12.1301 220.844 12.1301C220.276 12.1301 219.816 12.5887 219.816 13.1545C219.816 13.7202 220.276 14.1788 220.844 14.1788Z" fill="#A0BE26"/>
<path d="M209.876 15.0894C210.539 15.0894 211.076 14.5543 211.076 13.8943C211.076 13.2342 210.539 12.6992 209.876 12.6992C209.214 12.6992 208.677 13.2342 208.677 13.8943C208.677 14.5543 209.214 15.0894 209.876 15.0894Z" fill="#A0BE26"/>
<path d="M207.82 15.3171C208.104 15.3171 208.334 15.0877 208.334 14.8049C208.334 14.522 208.104 14.2927 207.82 14.2927C207.536 14.2927 207.306 14.522 207.306 14.8049C207.306 15.0877 207.536 15.3171 207.82 15.3171Z" fill="#A0BE26"/>
<path d="M360 17.3658H0V30H360V17.3658Z" fill="#324E60"/>
<path d="M50.0984 16.0569H1.82799C0.799746 16.0569 0 16.626 0 17.3089C0 17.9919 0.799746 18.561 1.82799 18.561H50.1555C51.1838 18.561 51.9835 17.9919 51.9835 17.3089C51.9264 16.626 51.1266 16.0569 50.0984 16.0569Z" fill="#D8CBC5"/>
<path d="M291.336 16.0569H103.567C102.539 16.0569 101.739 16.626 101.739 17.3089C101.739 17.9919 102.539 18.561 103.567 18.561H291.336C292.364 18.561 293.164 17.9919 293.164 17.3089C293.164 16.626 292.307 16.0569 291.336 16.0569Z" fill="#D8CBC5"/>
<path d="M358.172 16.0569H345.833C344.805 16.0569 344.005 16.626 344.005 17.3089C344.005 17.9919 344.805 18.561 345.833 18.561H358.172C359.2 18.561 360 17.9919 360 17.3089C360 16.626 359.143 16.0569 358.172 16.0569Z" fill="#D8CBC5"/>
<path d="M11.0251 26.0732H2.05648C1.77086 26.0732 1.54236 26.2439 1.54236 26.4716C1.54236 26.6992 1.77086 26.8699 2.05648 26.8699H11.0251C11.3107 26.8699 11.5392 26.6992 11.5392 26.4716C11.5392 26.2439 11.3107 26.0732 11.0251 26.0732Z" fill="#D8CBC5"/>
<path d="M70.3776 26.0732H52.3262C52.0406 26.0732 51.8121 26.2439 51.8121 26.4716C51.8121 26.6992 52.0406 26.8699 52.3262 26.8699H70.3205C70.6061 26.8699 70.8346 26.6992 70.8346 26.4716C70.8918 26.2439 70.6633 26.0732 70.3776 26.0732Z" fill="#D8CBC5"/>
<path d="M129.673 26.0732H111.679C111.393 26.0732 111.165 26.2439 111.165 26.4716C111.165 26.6992 111.393 26.8699 111.679 26.8699H129.673C129.959 26.8699 130.187 26.6992 130.187 26.4716C130.187 26.2439 129.959 26.0732 129.673 26.0732Z" fill="#D8CBC5"/>
<path d="M248.321 26.0732H230.327C230.041 26.0732 229.813 26.2439 229.813 26.4716C229.813 26.6992 230.041 26.8699 230.327 26.8699H248.321C248.607 26.8699 248.835 26.6992 248.835 26.4716C248.835 26.2439 248.607 26.0732 248.321 26.0732Z" fill="#D8CBC5"/>
<path d="M188.969 26.0732H170.974C170.689 26.0732 170.46 26.2439 170.46 26.4716C170.46 26.6992 170.689 26.8699 170.974 26.8699H188.969C189.254 26.8699 189.483 26.6992 189.483 26.4716C189.54 26.2439 189.311 26.0732 188.969 26.0732Z" fill="#D8CBC5"/>
<path d="M307.617 26.0732H289.622C289.337 26.0732 289.108 26.2439 289.108 26.4716C289.108 26.6992 289.337 26.8699 289.622 26.8699H307.617C307.902 26.8699 308.131 26.6992 308.131 26.4716C308.188 26.2439 307.902 26.0732 307.617 26.0732Z" fill="#D8CBC5"/>
<path d="M357.944 26.0732H348.975C348.689 26.0732 348.461 26.2439 348.461 26.4716C348.461 26.6992 348.689 26.8699 348.975 26.8699H357.944C358.229 26.8699 358.458 26.6992 358.458 26.4716C358.458 26.2439 358.229 26.0732 357.944 26.0732Z" fill="#D8CBC5"/>
</svg>
