<svg width="180" height="88" viewBox="0 0 180 88" fill="none" xmlns="http://www.w3.org/2000/svg">
<path d="M135.721 84L179.193 85.4228L135.721 86.9024V84Z" fill="#233A4C"/>
<path d="M137.207 80.813L164.398 82.2927L137.207 83.7154V80.813Z" fill="#233A4C"/>
<path d="M137.207 75.7479L157.429 77.2276L137.207 78.7073V75.7479Z" fill="#233A4C"/>
<path d="M24.1568 84L67.6287 85.4228L24.1568 86.9024V84Z" fill="#233A4C"/>
<path d="M25.642 80.813L52.8334 82.2927L25.642 83.7154V80.813Z" fill="#233A4C"/>
<path d="M25.642 75.7479L45.9213 77.2276L25.642 78.7073V75.7479Z" fill="#233A4C"/>
<path d="M166.397 74.7235C165.255 74.7235 164.398 73.813 164.398 72.7317V65.0488C164.398 63.9105 165.312 63.0569 166.397 63.0569C167.54 63.0569 168.397 63.9675 168.397 65.0488V72.7317C168.397 73.813 167.483 74.7235 166.397 74.7235Z" fill="#11345B"/>
<path d="M44.4932 14.8536V73.5284H49.6344V14.8536H44.4932Z" fill="#11345B"/>
<path d="M44.4932 74.7235H-15.6592C-16.4589 74.7235 -17.0873 74.0975 -17.0873 73.3008V47.065C-17.0873 45.8699 -16.4589 44.7317 -15.4307 44.1056L-11.3748 41.6585L-2.69185 18.2113C-1.60648 14.7967 1.5925 12.4634 5.19136 12.4634H43.3507C44.6645 12.4634 45.7499 13.5447 45.7499 14.8536V73.5284C45.7499 74.2113 45.1787 74.7235 44.4932 74.7235Z" fill="#11345B"/>
<path d="M35.4103 65.2195H45.7499V14.8536C45.7499 13.5447 44.6645 12.4634 43.3507 12.4634H5.19136C1.5925 12.4634 -1.60648 14.7967 -2.69185 18.2113L-11.3748 41.6585L-15.4307 44.1056C-16.4589 44.7317 -17.0873 45.8699 -17.0873 47.065V73.3577C-17.0873 74.1544 -16.4589 74.7804 -15.6592 74.7804H2.90637C2.84925 74.0975 2.79212 73.4146 2.79212 72.7317C2.79212 63.2845 10.504 55.6585 19.9295 55.6585C26.7274 55.6016 32.6112 59.5284 35.4103 65.2195Z" fill="url(#paint0_linear_212_305)"/>
<path opacity="0.5" d="M42.6081 65.2195V16.7317C42.6081 15.1382 41.2942 13.8292 39.6947 13.8292H5.19138C2.16377 13.8292 -0.463964 15.7642 -1.37796 18.6097L-10.5179 43.4796V68.8617C-10.5179 71.3658 -8.46142 73.3577 -6.00506 73.3577H2.79214C2.79214 73.13 2.79214 72.9024 2.79214 72.6747C2.79214 72.3902 2.79214 72.1056 2.79214 71.8211H-6.00506C-7.66168 71.8211 -8.97555 70.5121 -8.97555 68.8617V43.7642L0.0501585 19.1219C0.735655 16.9024 2.79215 15.3658 5.13426 15.3658H39.6376C40.3802 15.3658 41.0086 15.9918 41.0086 16.7317V65.2195H42.6081Z" fill="#F8A71D"/>
<path opacity="0.5" d="M37.0098 15.3658H5.19136C2.84924 15.3658 0.792753 16.8455 0.107256 19.065L-8.06158 40.9756C-8.29008 41.7154 -8.17583 42.5691 -7.66171 43.1951C-7.20471 43.8211 -6.46209 44.2195 -5.66234 44.2195H0.564256C3.47762 44.2195 6.33385 43.1951 8.56172 41.3171L9.36146 40.691C11.4751 38.9268 14.1028 37.9593 16.8448 37.9593H37.0098C38.4951 37.9593 39.6947 36.7642 39.6947 35.2845V18.0406C39.6947 16.561 38.4951 15.3658 37.0098 15.3658Z" fill="#F8A71D"/>
<path d="M39.6947 14.2277H5.19139C2.33515 14.2277 -0.17834 16.0488 -1.03521 18.7805L-10.118 43.4797V43.5366V68.8618C-10.118 71.1382 -8.29005 72.9594 -6.00506 72.9594H42.2082V16.7317C42.2082 15.3659 41.0657 14.2277 39.6947 14.2277ZM41.4656 72.2195H-5.94794C-7.77593 72.2195 -9.3183 70.7398 -9.3183 68.8618V43.7073L-0.235463 19.0081C0.507158 16.6179 2.73502 15.0244 5.24851 15.0244H39.7518C40.723 15.0244 41.5227 15.8212 41.5227 16.7886V72.2195H41.4656Z" fill="#11345B"/>
<path d="M16.8448 37.504H37.0098C38.2666 37.504 39.3519 36.4796 39.3519 35.1707V18.0406C39.3519 16.7886 38.3237 15.7073 37.0098 15.7073H5.19137C3.02063 15.7073 1.13551 17.0731 0.450012 19.1788L-7.71882 41.0894C-8.11869 42.4552 -7.14757 43.8211 -5.71946 43.8211H0.507136C3.36337 43.8211 6.10536 42.8536 8.2761 41.0325L9.07584 40.4065C11.2466 38.5284 13.9886 37.504 16.8448 37.504Z" fill="#11345B"/>
<path opacity="0.5" d="M38.8378 41.6586H32.6112C32.04 41.6586 31.583 42.1139 31.583 42.683C31.583 43.2521 32.04 43.7074 32.6112 43.7074H38.8378C39.4091 43.7074 39.8661 43.2521 39.8661 42.683C39.8661 42.1139 39.4091 41.6586 38.8378 41.6586Z" fill="#F8A71D"/>
<path d="M38.2666 41.1464H32.04C31.4687 41.1464 31.0117 41.6016 31.0117 42.1707C31.0117 42.7399 31.4687 43.1951 32.04 43.1951H38.2666C38.8378 43.1951 39.2948 42.7399 39.2948 42.1707C39.2948 41.6016 38.8378 41.1464 38.2666 41.1464Z" fill="#FEECCC"/>
<path d="M35.4103 65.2195C36.4957 67.4959 37.1241 70.0569 37.1241 72.7317C37.1241 73.4146 37.067 74.0975 37.0098 74.7805H44.4932C45.1787 74.7805 45.7499 74.2113 45.7499 73.5284V65.2195H35.4103Z" fill="#11345B"/>
<path d="M35.4104 65.2194C32.6112 59.5284 26.7845 55.6016 19.9867 55.6016C19.7582 55.6016 19.5297 55.6016 19.3012 55.6016C25.7563 55.8861 31.2974 59.6991 33.9822 65.1625C35.0676 67.439 35.696 69.9999 35.696 72.6747C35.696 73.3577 35.6389 74.0406 35.5817 74.7235H37.0098C37.067 74.0406 37.1241 73.3577 37.1241 72.6747C37.1241 69.9999 36.4957 67.4959 35.4104 65.2194Z" fill="#FEECCC"/>
<path d="M19.9867 87.8699C28.3787 87.8699 35.1819 81.0923 35.1819 72.7317C35.1819 64.3711 28.3787 57.5935 19.9867 57.5935C11.5946 57.5935 4.7915 64.3711 4.7915 72.7317C4.7915 81.0923 11.5946 87.8699 19.9867 87.8699Z" fill="#233A4C"/>
<path d="M19.9867 86.7317C27.7478 86.7317 34.0394 80.4637 34.0394 72.7317C34.0394 64.9997 27.7478 58.7317 19.9867 58.7317C12.2256 58.7317 5.93399 64.9997 5.93399 72.7317C5.93399 80.4637 12.2256 86.7317 19.9867 86.7317Z" fill="#294259"/>
<path d="M19.9867 82.1219C25.1923 82.1219 29.4123 77.9178 29.4123 72.7317C29.4123 67.5456 25.1923 63.3414 19.9867 63.3414C14.7811 63.3414 10.5611 67.5456 10.5611 72.7317C10.5611 77.9178 14.7811 82.1219 19.9867 82.1219Z" fill="#233A4C"/>
<path d="M19.9867 80.8699C24.4982 80.8699 28.1555 77.2263 28.1555 72.7317C28.1555 68.2371 24.4982 64.5935 19.9867 64.5935C15.4752 64.5935 11.8178 68.2371 11.8178 72.7317C11.8178 77.2263 15.4752 80.8699 19.9867 80.8699Z" fill="#FEECCC"/>
<path d="M25.0137 66.3577C26.099 67.7235 26.7845 69.4877 26.7845 71.3658C26.7845 75.8617 23.1285 79.504 18.6157 79.504C16.7306 79.504 14.9597 78.8211 13.5887 77.7398C15.074 79.6178 17.4161 80.813 19.9867 80.813C24.4995 80.813 28.1555 77.1707 28.1555 72.6747C28.0984 70.1138 26.8988 67.8373 25.0137 66.3577Z" fill="#D8BF98"/>
<path d="M53.3475 74.7236H158.857C162.17 74.7236 164.798 72.0488 164.798 68.8049V5.9187C164.798 2.61789 162.113 0 158.857 0H53.3475C50.0343 0 47.4065 2.6748 47.4065 5.9187V68.8049C47.4065 72.1057 50.0914 74.7236 53.3475 74.7236Z" fill="url(#paint1_linear_212_305)"/>
<path d="M156.515 74.7235H98.8188C98.0762 74.7235 97.4478 74.0975 97.4478 73.3576V48.1463C97.4478 47.0081 98.0762 45.9268 99.0473 45.3007L102.932 42.9105L111.272 20.4877C112.3 17.1869 115.385 14.9674 118.812 14.9674H155.429C156.686 14.9674 157.714 15.9918 157.714 17.2438V73.5284C157.714 74.2113 157.2 74.7235 156.515 74.7235Z" fill="#11345B"/>
<path d="M156.572 12.4634H118.413C114.814 12.4634 111.615 14.7967 110.529 18.2113L101.846 41.6016L97.7905 44.0487C96.7623 44.6748 96.1339 45.813 96.1339 47.0081V73.3008C96.1339 74.0975 96.7623 74.7235 97.562 74.7235H116.128C116.07 74.0406 116.013 73.3577 116.013 72.6748C116.013 63.2276 123.725 55.6016 133.151 55.6016C139.949 55.6016 145.775 59.5284 148.574 65.2195C149.66 67.4959 150.288 70.0569 150.288 72.7317C150.288 73.4146 150.231 74.0975 150.174 74.7804H157.657C158.343 74.7804 158.914 74.2113 158.914 73.5284V65.2195V14.8536C158.971 13.5447 157.943 12.4634 156.572 12.4634Z" fill="url(#paint2_linear_212_305)"/>
<path d="M164.855 16.3903H47.4065V33.122H164.855V16.3903Z" fill="#FEECCC"/>
<path opacity="0.5" d="M160.399 3.69922H51.8051C51.5195 3.69922 51.2339 3.92686 51.2339 4.26832V70.5122C51.2339 70.7968 51.4624 71.0813 51.8051 71.0813H160.399C160.685 71.0813 160.97 70.8537 160.97 70.5122V4.26832C160.97 3.98377 160.685 3.69922 160.399 3.69922ZM160.171 4.49597V70.2846H52.0336V4.49597H160.171Z" fill="#F8A71D"/>
<path d="M160.799 3.64221H51.4624C51.291 3.64221 51.1196 3.81294 51.1196 3.98368V70.6828C51.1196 70.8536 51.291 71.0243 51.4624 71.0243H160.799C160.97 71.0243 161.142 70.8536 161.142 70.6828V4.04059C161.142 3.81294 160.97 3.64221 160.799 3.64221ZM160.742 70.6828H51.4624V4.04059H160.742V70.6828Z" fill="#11345B"/>
<path d="M133.208 87.8699C141.6 87.8699 148.403 81.0923 148.403 72.7317C148.403 64.3711 141.6 57.5935 133.208 57.5935C124.816 57.5935 118.013 64.3711 118.013 72.7317C118.013 81.0923 124.816 87.8699 133.208 87.8699Z" fill="#233A4C"/>
<path d="M133.208 86.7317C140.969 86.7317 147.261 80.4637 147.261 72.7317C147.261 64.9997 140.969 58.7317 133.208 58.7317C125.447 58.7317 119.155 64.9997 119.155 72.7317C119.155 80.4637 125.447 86.7317 133.208 86.7317Z" fill="#294259"/>
<path d="M133.208 82.1219C138.413 82.1219 142.633 77.9178 142.633 72.7317C142.633 67.5456 138.413 63.3414 133.208 63.3414C128.002 63.3414 123.782 67.5456 123.782 72.7317C123.782 77.9178 128.002 82.1219 133.208 82.1219Z" fill="#233A4C"/>
<path d="M133.208 80.8699C137.719 80.8699 141.377 77.2263 141.377 72.7317C141.377 68.2371 137.719 64.5935 133.208 64.5935C128.696 64.5935 125.039 68.2371 125.039 72.7317C125.039 77.2263 128.696 80.8699 133.208 80.8699Z" fill="#FEECCC"/>
<path d="M138.235 66.3578C139.32 67.7236 140.006 69.4879 140.006 71.3659C140.006 75.8619 136.35 79.5041 131.837 79.5041C129.952 79.5041 128.181 78.8212 126.81 77.7399C128.295 79.618 130.637 80.8131 133.208 80.8131C137.721 80.8131 141.377 77.1708 141.377 72.6749C141.377 70.1139 140.12 67.8375 138.235 66.3578Z" fill="#D8BF98"/>
<path d="M148.632 65.2194C145.832 59.5284 140.006 55.6016 133.208 55.6016C132.979 55.6016 132.751 55.6016 132.522 55.6016C138.977 55.8861 144.519 59.6991 147.203 65.1625C148.289 67.439 148.917 69.9999 148.917 72.6747C148.917 73.3577 148.86 74.0406 148.803 74.7235H150.231C150.288 74.0406 150.345 73.3577 150.345 72.6747C150.345 69.9999 149.717 67.4959 148.632 65.2194Z" fill="#FEECCC"/>
<path opacity="0.25" d="M160.913 53.6666H51.1768V54.2357H160.913V53.6666Z" fill="#11345B"/>
<defs>
<linearGradient id="paint0_linear_212_305" x1="14.3528" y1="74.7422" x2="14.3528" y2="12.4675" gradientUnits="userSpaceOnUse">
<stop stop-color="#FE9F0F"/>
<stop offset="1" stop-color="#FDBF2C"/>
</linearGradient>
<linearGradient id="paint1_linear_212_305" x1="106.117" y1="74.7423" x2="106.117" y2="0" gradientUnits="userSpaceOnUse">
<stop stop-color="#FE9F0F"/>
<stop offset="1" stop-color="#FDBF2C"/>
</linearGradient>
<linearGradient id="paint2_linear_212_305" x1="127.6" y1="73.9409" x2="127.6" y2="0.0103307" gradientUnits="userSpaceOnUse">
<stop stop-color="#FE9F0F"/>
<stop offset="1" stop-color="#FDBF2C"/>
</linearGradient>
</defs>
</svg>
